<svg width="24" height="27" viewBox="0 0 24 27" fill="none" xmlns="http://www.w3.org/2000/svg">
<circle cx="2" cy="2" r="2" fill="#916DFD"/>
<path fill-rule="evenodd" clip-rule="evenodd" d="M4.7712 9.21956C4.7712 8.0124 5.14257 6.17897 6.22769 4.67592C7.27611 3.22371 9.03311 2.01318 11.9997 2.01318C14.9664 2.01318 16.7234 3.22371 17.7718 4.67592C18.8569 6.17897 19.2283 8.0124 19.2283 9.21956V17.4259C19.2283 17.6916 19.334 17.9464 19.5221 18.134L20.5523 19.1614H3.44718L4.47735 18.134C4.66547 17.9464 4.7712 17.6916 4.7712 17.4259V9.21956ZM11.9997 0.0131836C8.38354 0.0131836 6.02627 1.53812 4.60612 3.50523C3.22268 5.4215 2.7712 7.69126 2.7712 9.21956V17.0109L0.322198 19.4533C0.0356402 19.7391 -0.0504103 20.1695 0.104212 20.5435C0.258835 20.9175 0.623642 21.1614 1.02835 21.1614H22.9711C23.3759 21.1614 23.7407 20.9175 23.8953 20.5435C24.0499 20.1695 23.9639 19.7391 23.6773 19.4533L21.2283 17.0109V9.21956C21.2283 7.69126 20.7768 5.4215 19.3934 3.50523C17.9732 1.53812 15.616 0.0131836 11.9997 0.0131836ZM11.9997 27C9.7275 27 7.88548 25.163 7.88547 22.8969L16.114 22.8969C16.114 25.163 14.272 27 11.9997 27Z" fill="#916DFD"/>
</svg>
