<svg width="44" height="44" viewBox="0 0 44 44" fill="none" xmlns="http://www.w3.org/2000/svg">
<path d="M5.5 22C5.5 12.8873 12.8873 5.5 22 5.5V5.5C31.1127 5.5 38.5 12.8873 38.5 22V22C38.5 31.1127 31.1127 38.5 22 38.5V38.5C12.8873 38.5 5.5 31.1127 5.5 22V22Z" fill="#9D9D9D"/>
<ellipse cx="22.0003" cy="18.3333" rx="7.33333" ry="7.33333" fill="#E1E1E1"/>
<path fill-rule="evenodd" clip-rule="evenodd" d="M33.4865 33.5881C33.5432 33.6853 33.5255 33.8083 33.4444 33.8864C30.4778 36.7433 26.4442 38.5 22.0004 38.5C17.5566 38.5 13.5232 36.7433 10.5565 33.8865C10.4755 33.8084 10.4578 33.6854 10.5145 33.5882C12.6195 29.9786 16.9723 27.5 22.0005 27.5C27.0286 27.5 31.3814 29.9786 33.4865 33.5881Z" fill="#E1E1E1"/>
</svg>
