<svg width="61" height="24" viewBox="0 0 61 24" fill="none" xmlns="http://www.w3.org/2000/svg">
<g clip-path="url(#clip0_1303_39070)">
<path d="M4.70337 10.625C4.10857 11.6552 3.88128 12.8569 4.05875 14.0332C4.23622 15.2095 4.80791 16.2906 5.68018 17.0995C6.55245 17.9084 7.67357 18.3971 8.85989 18.4855C10.0462 18.5739 11.2274 18.2568 12.2099 17.5861C13.1924 16.9154 13.918 15.9309 14.2678 14.7939C14.6177 13.6569 14.571 12.4348 14.1355 11.3278C13.6999 10.2208 12.9013 9.29455 11.8705 8.70077C10.8397 8.10699 9.63777 7.8809 8.46166 8.05953" stroke="#9D9D9D" stroke-linecap="round"/>
<path d="M6.45 8.25981C6.25 8.14434 6.25 7.85566 6.45 7.74019L8.55 6.52776C8.75 6.41229 9 6.55662 9 6.78756L9 9.21244C9 9.44338 8.75 9.58771 8.55 9.47224L6.45 8.25981Z" fill="#9D9D9D"/>
<path d="M24.764 14.136C26.892 13.8 28.6 12.82 29.44 11.392C30.266 12.82 31.974 13.8 34.102 14.136L34.648 12.974C31.988 12.61 30.252 11.168 30.168 9.474H34.116V8.298H30.154V6.66H28.712V8.298H24.736V9.474H28.698C28.614 11.168 26.878 12.61 24.218 12.974L24.764 14.136ZM30.154 16.376V13.688H28.712V16.376H23.714V17.552H35.166V16.376H30.154ZM37.3069 7.766V8.942H41.8149C41.5629 11.854 39.9949 14.08 36.6769 15.676L37.4469 16.824C41.7869 14.724 43.2989 11.532 43.2989 7.766H37.3069ZM45.5809 6.436V19.078H47.0229V6.436H45.5809ZM57.0598 7.892H54.0358V6.478H52.5938V7.892H49.5418V9.054H57.0598V7.892ZM51.6418 12.05C51.6418 11.266 52.3278 10.79 53.3218 10.79C54.3158 10.79 54.9878 11.266 54.9878 12.05C54.9878 12.82 54.3158 13.296 53.3218 13.296C52.3278 13.296 51.6418 12.82 51.6418 12.05ZM54.0358 14.346C55.4358 14.122 56.3458 13.254 56.3458 12.05C56.3458 10.622 55.1138 9.684 53.3218 9.684C51.5158 9.684 50.2838 10.622 50.2838 12.05C50.2838 13.254 51.1938 14.108 52.5938 14.346V15.578C51.4178 15.62 50.2838 15.62 49.3178 15.62L49.5138 16.81C51.6838 16.81 54.6098 16.782 57.3118 16.306L57.1998 15.242C56.1918 15.396 55.1138 15.466 54.0358 15.522V14.346ZM61.1478 11.714H59.3558V6.422H57.9138V19.078H59.3558V12.904H61.1478V11.714Z" fill="#9D9D9D"/>
</g>
<defs>
<clipPath id="clip0_1303_39070">
<rect width="61" height="24" fill="white"/>
</clipPath>
</defs>
</svg>
