<svg xmlns="http://www.w3.org/2000/svg"  height="240" width="240" viewBox="0 0 120.84 121.36"><defs><style>.cls-1{fill:#492100;}.cls-2{fill:#009f48;}.cls-3{fill:#006ed0;}.cls-4{fill:#00d664;}.cls-5{fill:#00d564;}.cls-6{fill:#ffcd00;}.cls-7{fill:#ffe500;}.cls-8{fill:#fff;}.cls-9{fill:#be1d38;stroke:#009f48;stroke-miterlimit:10;stroke-width:0.57px;}.cls-10{fill:#602e00;}.cls-11{fill:#073;}</style></defs><g id="레이어_2" data-name="레이어 2"><g id="Layer_1" data-name="Layer 1"><path class="cls-1" d="M105.12,82a31.82,31.82,0,0,0-4.65-1.18c-1.26-.08-2.7,3.88-2.7,3.88l2.67,2.65,3.37,2.4,1.54.67Z"/><path class="cls-2" d="M116.79,42.7s-.8-9.25-9.74-13.16-1.55,15.93-1.55,15.93Z"/><path class="cls-2" d="M77.55,6.61S84.89,5.88,89.72,10s-4.63,9.54-4.63,9.54Z"/><path class="cls-2" d="M36.06,14.76S43,10.51,48.41,11.91,53,20,53,20L48.26,27.5Z"/><path class="cls-2" d="M33.15,77.62s1.31-5.75,16.11-1.73c7.79,2.12,12.2,13.38,7.58,17.85s16-8.69,16-8.69l-5.42-13s-15.09-6.09-19-5.73S33.15,77.62,33.15,77.62Z"/><path class="cls-3" d="M96.55,35.72s5.46-3.5,8-4a7.25,7.25,0,0,1,4.74.95Z"/><rect class="cls-2" x="43.02" y="9.97" width="25.03" height="83.98" rx="12.33" transform="translate(128.84 72.24) rotate(152.37)"/><path class="cls-2" d="M77.55,6.61h0A12.52,12.52,0,0,1,89.7,19.68l-2.27,42A12.85,12.85,0,0,1,73.92,73.66h0A12.53,12.53,0,0,1,61.76,60.59l2.27-42A12.85,12.85,0,0,1,77.55,6.61Z"/><rect class="cls-2" x="88.67" y="28.49" width="25.03" height="33.96" rx="12.33" transform="translate(180.41 123.12) rotate(-159.77)"/><rect class="cls-4" x="49.23" y="8.54" width="25.03" height="83.98" rx="12.33" transform="translate(139.88 66.67) rotate(152.37)"/><rect class="cls-5" x="68.31" y="7.93" width="25.03" height="67.09" rx="12.33" transform="translate(156.97 91) rotate(-174.13)"/><rect class="cls-4" x="80.25" y="29.31" width="25.03" height="68.09" rx="12.33" transform="translate(135.66 167.17) rotate(-146.78)"/><path class="cls-6" d="M28.18,78.46l5.74,3a3.6,3.6,0,0,1-.09,6.46L28,90.64a3.54,3.54,0,0,0-2,2.67l-1,6.38a3.58,3.58,0,0,1-6.16,1.88l-4.44-4.71a3.65,3.65,0,0,0-3.17-1.1l-6.38,1a3.61,3.61,0,0,1-3.71-5.3L4.2,85.78a3.58,3.58,0,0,0,0-3.35L1.33,76.65A3.58,3.58,0,0,1,5.19,71.5l6.35,1.21a3.58,3.58,0,0,0,3.2-1l4.57-4.54a3.6,3.6,0,0,1,6.1,2.11l.84,6.41A3.59,3.59,0,0,0,28.18,78.46Z"/><path class="cls-4" d="M52.52,47.49A36.31,36.31,0,0,0,24.57,60.34a12.91,12.91,0,0,0-2,2.55,12.52,12.52,0,0,0,10.8,18.85,12.48,12.48,0,0,0,9.17-4,13.69,13.69,0,0,0,1.29-1.64,4.9,4.9,0,0,1,1.07-1.2,11.75,11.75,0,0,1,7.41-2.39,11.38,11.38,0,0,1,0,22.76c-4,0-8.82-4.2-9.14-4.46a12.52,12.52,0,0,0-19.78,15q.24.42.51.81a12.35,12.35,0,0,0,1.8,2.09,36.41,36.41,0,1,0,26.8-61.26ZM45.9,69.84c0-.21,0-.41,0-.62C45.91,69.43,45.91,69.64,45.9,69.84Z"/><path class="cls-7" d="M25,78.75l6.42,3a2.77,2.77,0,0,1,.1,5L25.17,90a2.74,2.74,0,0,0-1.47,2.11l-.89,7a2.77,2.77,0,0,1-4.69,1.63l-5.05-5A2.77,2.77,0,0,0,10.61,95l-7,1.33a2.77,2.77,0,0,1-3-4l3.18-6.34a2.77,2.77,0,0,0,0-2.58L.35,77.27A2.77,2.77,0,0,1,3.19,73.2l7,1.07a2.76,2.76,0,0,0,2.43-.84l4.86-5.18a2.77,2.77,0,0,1,4.75,1.44l1.15,7A2.76,2.76,0,0,0,25,78.75Z"/><path class="cls-4" d="M53.56,120.31s25.82,4.37,36.17-4.77c16.34-14.44,14.16-55.24,14.16-55.24Z"/><path class="cls-2" d="M63.21,23.57l-11.59,8S39.13,18.87,53.22,9.13Z"/><path class="cls-2" d="M95.84,27.35l-11.24.53S81.34,10.45,95,9.81Z"/><path class="cls-2" d="M114.66,54.87l-8.83-4s4.27-14.64,15-9.83Z"/><ellipse class="cls-8" cx="51.29" cy="57.88" rx="6.01" ry="3.93" transform="translate(-13.99 99.36) rotate(-80.89)"/><path d="M51.23,55.23c1.08.1,1.85,1.51,1.72,3.16a4,4,0,0,1-.08.5l-1,0,.48,1.35a1.81,1.81,0,0,1-1.59.94c-1.08-.09-1.85-1.5-1.71-3.16S50.15,55.14,51.23,55.23Z"/><path d="M70.56,57.41c-.18-.23-2.35-.74-5.25-.38a21.63,21.63,0,0,0-5.85,1.5.2.2,0,0,0,0,.11h0c0,.11-.34.5-.34.5s-.49.33-.44.52a21.38,21.38,0,0,0,4.58,3.92c2.45,1.6,4.64,2.08,4.91,2s-.41-1.14-.41-1.14.14-.93-.35-1.25c-.32-.22-3.72-2.17-6-3.44,2.52-.14,7-.45,7.44-.51.58-.07.87-.95.87-.95S70.74,57.65,70.56,57.41Z"/><path class="cls-9" d="M50,65.94c.7-.51,4.43,3.47,7,3.79s6.34-1.63,7-.93-4.29,8.94-7.77,8.49S49.33,66.44,50,65.94Z"/><path class="cls-10" d="M76.17,1.15H87.41A11.22,11.22,0,0,1,98.63,12.37v8.45a0,0,0,0,1,0,0H65a0,0,0,0,1,0,0V12.37A11.22,11.22,0,0,1,76.17,1.15Z" transform="translate(3.82 -16.06) rotate(11.48)"/><path class="cls-1" d="M82.68,1.3,84,1.55c.69.13,1.37.3,2,.48a.61.61,0,0,0,0-.13c.09-.76-.82-1.5-2-1.65a2.14,2.14,0,0,0-2.32.89Z"/><path class="cls-1" d="M71.46,15.44C73.14,7.28,77.73,1.27,82.12,1A16,16,0,0,0,64.05,13.6l-.71,3.67,7.47,1.56Z"/><path class="cls-1" d="M86,1.88s.06,0,.06,0,0,.1,0,.15c3.49,2.46,5,9.51,3.43,17.22l-.65,3.15L96.28,24,97,20.47A16.08,16.08,0,0,0,86,1.88Z"/><path class="cls-1" d="M103.88,108.63H85.38A16.53,16.53,0,0,1,69.43,96.45a16.35,16.35,0,0,1-.58-4.34V84.27s17.19,9.24,26.52,10,10.46-8.11,10.46-8.11a61.83,61.83,0,0,1,4.26,13.36C111.52,106.94,109.76,108.63,103.88,108.63Z"/><path class="cls-7" d="M100.6,82.17l1.54.9a1,1,0,0,1-.12,1.78l-1.64.67a1,1,0,0,0-.59.71L99.41,88a1,1,0,0,1-1.72.43L96.54,87a1,1,0,0,0-.86-.35l-1.77.18A1,1,0,0,1,93,85.36l.93-1.52a1,1,0,0,0,.06-.92l-.72-1.63a1,1,0,0,1,1.14-1.37l1.73.43a1,1,0,0,0,.89-.22l1.32-1.19a1,1,0,0,1,1.65.67l.14,1.78A1,1,0,0,0,100.6,82.17Z"/><path class="cls-6" d="M99.71,82.21l1.73.92a.77.77,0,0,1,0,1.37l-1.78.8a.8.8,0,0,0-.44.56l-.34,1.93a.77.77,0,0,1-1.32.38l-1.32-1.45a.77.77,0,0,0-.66-.24l-1.94.27a.76.76,0,0,1-.77-1.13l1-1.71a.75.75,0,0,0,0-.7L93,81.44a.76.76,0,0,1,.84-1.08l1.92.4a.75.75,0,0,0,.68-.2l1.41-1.35a.76.76,0,0,1,1.29.46l.21,2A.78.78,0,0,0,99.71,82.21Z"/><path class="cls-7" d="M92.12,84.11l1.14.67a.73.73,0,0,1-.09,1.31l-1.21.5a.72.72,0,0,0-.44.52l-.27,1.29a.74.74,0,0,1-1.28.32l-.85-1a.73.73,0,0,0-.63-.26l-1.31.13a.73.73,0,0,1-.7-1.11l.69-1.13a.74.74,0,0,0,0-.68l-.53-1.2a.73.73,0,0,1,.84-1l1.28.31a.72.72,0,0,0,.66-.16l1-.88a.74.74,0,0,1,1.22.5l.1,1.31A.73.73,0,0,0,92.12,84.11Z"/><path class="cls-6" d="M91.46,84.14l1.28.68a.57.57,0,0,1,0,1l-1.32.6a.54.54,0,0,0-.32.41l-.26,1.43a.56.56,0,0,1-1,.28l-1-1.07a.54.54,0,0,0-.49-.18l-1.43.19a.56.56,0,0,1-.57-.83l.72-1.26a.56.56,0,0,0,0-.52l-.63-1.31a.57.57,0,0,1,.62-.8l1.42.3a.6.6,0,0,0,.51-.15l1-1a.56.56,0,0,1,1,.34l.16,1.44A.57.57,0,0,0,91.46,84.14Z"/><path class="cls-7" d="M90,80.77l.27.41a.28.28,0,0,1-.25.43l-.49,0a.25.25,0,0,0-.23.1l-.31.39a.28.28,0,0,1-.48-.11l-.12-.48a.25.25,0,0,0-.17-.19l-.46-.18a.27.27,0,0,1,0-.49l.41-.26a.26.26,0,0,0,.13-.22l0-.49a.27.27,0,0,1,.45-.2l.37.32a.28.28,0,0,0,.25.06l.47-.13a.28.28,0,0,1,.33.37l-.19.45A.3.3,0,0,0,90,80.77Z"/><path class="cls-6" d="M89.79,80.67l.32.44a.21.21,0,0,1-.18.33l-.54,0a.23.23,0,0,0-.18.08l-.33.44a.21.21,0,0,1-.37-.07l-.14-.52a.2.2,0,0,0-.14-.14L87.72,81a.2.2,0,0,1,0-.37l.45-.3a.21.21,0,0,0,.09-.18v-.54a.21.21,0,0,1,.34-.16l.42.34a.24.24,0,0,0,.2,0l.51-.16A.21.21,0,0,1,90,80l-.18.51A.2.2,0,0,0,89.79,80.67Z"/><path class="cls-7" d="M102.31,79.56l.18.27a.19.19,0,0,1-.17.29l-.33,0a.19.19,0,0,0-.16.06l-.21.26a.18.18,0,0,1-.32-.07l-.08-.32a.16.16,0,0,0-.11-.13l-.31-.12a.19.19,0,0,1,0-.33l.28-.17a.24.24,0,0,0,.09-.15v-.34a.18.18,0,0,1,.3-.13l.26.22a.17.17,0,0,0,.17,0l.31-.08a.18.18,0,0,1,.22.25l-.12.3A.19.19,0,0,0,102.31,79.56Z"/><path class="cls-6" d="M102.15,79.49l.21.3a.14.14,0,0,1-.12.22h-.36a.13.13,0,0,0-.12,0l-.22.3a.14.14,0,0,1-.25,0l-.1-.35a.15.15,0,0,0-.09-.1l-.35-.12a.14.14,0,0,1,0-.25l.3-.2a.15.15,0,0,0,.07-.12V78.8a.14.14,0,0,1,.23-.11l.29.22a.15.15,0,0,0,.13,0l.35-.11a.14.14,0,0,1,.17.18l-.12.35A.15.15,0,0,0,102.15,79.49Z"/><path class="cls-7" d="M85.58,83.13l.13,1.17a.66.66,0,0,1-1,.64l-1-.6a.63.63,0,0,0-.61,0L82,84.79a.65.65,0,0,1-.91-.75l.26-1.15a.64.64,0,0,0-.15-.59l-.8-.88a.66.66,0,0,1,.43-1.1l1.18-.1a.69.69,0,0,0,.52-.33l.58-1a.66.66,0,0,1,1.18.07L84.77,80a.64.64,0,0,0,.47.39l1.15.23a.66.66,0,0,1,.3,1.15l-.89.78A.62.62,0,0,0,85.58,83.13Z"/><path class="cls-6" d="M85.2,82.67,85.4,84a.51.51,0,0,1-.75.52l-1.14-.63a.49.49,0,0,0-.47,0l-1.16.58a.51.51,0,0,1-.72-.55l.24-1.28a.47.47,0,0,0-.13-.45l-.91-.93a.5.5,0,0,1,.3-.85L82,80.19a.49.49,0,0,0,.38-.27l.61-1.15a.5.5,0,0,1,.9,0L84.39,80a.51.51,0,0,0,.38.28l1.28.22a.51.51,0,0,1,.26.87l-1,.88A.54.54,0,0,0,85.2,82.67Z"/><path class="cls-6" d="M96.8,87.13l1.2.7a.78.78,0,0,1-.09,1.39l-1.28.53a.77.77,0,0,0-.47.55l-.29,1.36a.77.77,0,0,1-1.34.34l-.9-1.07a.82.82,0,0,0-.67-.27l-1.38.14a.78.78,0,0,1-.74-1.18l.72-1.19a.75.75,0,0,0,0-.71l-.56-1.28a.77.77,0,0,1,.89-1.06l1.35.33a.78.78,0,0,0,.7-.18l1-.92a.78.78,0,0,1,1.29.52l.11,1.39A.78.78,0,0,0,96.8,87.13Z"/><path class="cls-7" d="M96.1,87.16l1.35.72a.6.6,0,0,1,0,1.07l-1.4.63a.62.62,0,0,0-.34.44l-.27,1.5a.59.59,0,0,1-1,.3l-1-1.13a.57.57,0,0,0-.52-.19l-1.52.21a.6.6,0,0,1-.6-.89l.76-1.33a.59.59,0,0,0,0-.55l-.67-1.38a.6.6,0,0,1,.66-.84L93,86a.59.59,0,0,0,.54-.16l1.1-1.05a.59.59,0,0,1,1,.36l.17,1.52A.65.65,0,0,0,96.1,87.16Z"/><path class="cls-6" d="M88,83.57l.64.38a.41.41,0,0,1-.05.74l-.69.28a.43.43,0,0,0-.24.3l-.16.73a.41.41,0,0,1-.72.18l-.49-.57a.44.44,0,0,0-.36-.15l-.74.08a.42.42,0,0,1-.39-.64l.39-.63a.41.41,0,0,0,0-.39l-.3-.68a.41.41,0,0,1,.48-.57l.72.17a.41.41,0,0,0,.38-.09l.55-.5a.41.41,0,0,1,.69.28l.06.75A.42.42,0,0,0,88,83.57Z"/><path class="cls-7" d="M87.63,83.58l.73.39a.32.32,0,0,1,0,.57l-.75.34a.32.32,0,0,0-.18.24l-.15.81a.32.32,0,0,1-.55.15l-.55-.6a.3.3,0,0,0-.28-.1l-.81.11a.33.33,0,0,1-.33-.48l.41-.71a.32.32,0,0,0,0-.3l-.36-.74a.32.32,0,0,1,.35-.45L86,83a.3.3,0,0,0,.28-.09l.6-.56a.32.32,0,0,1,.54.19l.09.82A.31.31,0,0,0,87.63,83.58Z"/><path class="cls-6" d="M94.07,83.23l.2.53a.32.32,0,0,1-.38.42L93.35,84a.33.33,0,0,0-.29,0l-.44.36a.32.32,0,0,1-.51-.24v-.56a.33.33,0,0,0-.14-.26l-.48-.31a.32.32,0,0,1,.07-.56l.53-.19a.3.3,0,0,0,.2-.21l.15-.55a.31.31,0,0,1,.55-.11l.34.45a.3.3,0,0,0,.26.12l.57,0a.32.32,0,0,1,.27.5l-.32.46A.3.3,0,0,0,94.07,83.23Z"/><path class="cls-7" d="M93.84,83.07l.24.57a.24.24,0,0,1-.28.32l-.6-.15a.25.25,0,0,0-.22,0l-.47.41a.24.24,0,0,1-.4-.17l0-.62a.25.25,0,0,0-.12-.19L91.43,83a.24.24,0,0,1,0-.43l.58-.23a.26.26,0,0,0,.15-.17l.14-.6a.24.24,0,0,1,.42-.1l.39.48a.24.24,0,0,0,.21.08L94,82a.24.24,0,0,1,.22.37l-.33.52A.26.26,0,0,0,93.84,83.07Z"/><path class="cls-6" d="M92.07,87.84l1.36-.28a.77.77,0,0,1,.86,1.09l-.6,1.25a.77.77,0,0,0,0,.72l.69,1.2A.77.77,0,0,1,93.64,93l-1.39-.18a.74.74,0,0,0-.67.24l-.94,1a.78.78,0,0,1-1.34-.38l-.25-1.37a.79.79,0,0,0-.45-.57l-1.27-.57a.77.77,0,0,1,0-1.38l1.23-.66a.78.78,0,0,0,.4-.6l.15-1.38a.78.78,0,0,1,1.31-.47l1,1A.76.76,0,0,0,92.07,87.84Z"/><path class="cls-7" d="M91.57,88.32,93.06,88a.59.59,0,0,1,.68.82l-.61,1.4a.6.6,0,0,0,0,.55L94,92a.59.59,0,0,1-.57.9l-1.52-.15a.58.58,0,0,0-.51.21l-1,1.17a.6.6,0,0,1-1-.26L89,92.41a.61.61,0,0,0-.36-.42l-1.42-.58a.6.6,0,0,1-.07-1.07l1.32-.77a.6.6,0,0,0,.29-.47l.11-1.52a.6.6,0,0,1,1-.41l1.14,1A.59.59,0,0,0,91.57,88.32Z"/><path class="cls-6" d="M100.26,86.5l1.53-.32a.87.87,0,0,1,1,1.22l-.66,1.4a.86.86,0,0,0,0,.81L102.9,91a.86.86,0,0,1-.86,1.29L100.49,92a.9.9,0,0,0-.76.28l-1,1.16a.87.87,0,0,1-1.5-.43l-.29-1.52a.88.88,0,0,0-.5-.64L95,90.26a.87.87,0,0,1-.06-1.55L96.28,88a.88.88,0,0,0,.45-.67l.16-1.55a.86.86,0,0,1,1.46-.53l1.13,1.07A.89.89,0,0,0,100.26,86.5Z"/><path class="cls-7" d="M99.7,87.05l1.66-.42a.67.67,0,0,1,.78.92l-.68,1.57a.65.65,0,0,0,.05.62l.9,1.45a.66.66,0,0,1-.62,1L100.08,92a.66.66,0,0,0-.57.24l-1.1,1.31a.67.67,0,0,1-1.16-.28l-.37-1.67a.68.68,0,0,0-.41-.48l-1.58-.63a.67.67,0,0,1-.09-1.2l1.47-.87a.65.65,0,0,0,.32-.53l.12-1.7a.67.67,0,0,1,1.11-.46L99.1,86.9A.66.66,0,0,0,99.7,87.05Z"/><path class="cls-6" d="M101.13,87.44l-1.33.43a.78.78,0,0,1-1-1l.47-1.31a.75.75,0,0,0-.1-.71l-.82-1.13A.77.77,0,0,1,99,82.5l1.39,0a.77.77,0,0,0,.65-.31l.82-1.12a.77.77,0,0,1,1.37.24l.4,1.33a.79.79,0,0,0,.5.52l1.32.43a.77.77,0,0,1,.2,1.37l-1.15.79a.77.77,0,0,0-.34.63v1.39a.78.78,0,0,1-1.25.61l-1.11-.85A.79.79,0,0,0,101.13,87.44Z"/><path class="cls-7" d="M101.58,86.91l-1.44.52a.6.6,0,0,1-.77-.74l.46-1.46a.61.61,0,0,0-.1-.55l-.93-1.2a.6.6,0,0,1,.46-1h1.53a.57.57,0,0,0,.49-.26l.86-1.26a.6.6,0,0,1,1.06.15l.48,1.45a.59.59,0,0,0,.4.38l1.47.43a.59.59,0,0,1,.18,1l-1.23.91a.62.62,0,0,0-.24.49l0,1.53a.6.6,0,0,1-.94.51l-1.24-.9A.6.6,0,0,0,101.58,86.91Z"/><path class="cls-6" d="M88.44,85.51l1.37-.27a.77.77,0,0,1,.85,1.1l-.61,1.24a.77.77,0,0,0,0,.72l.68,1.21A.77.77,0,0,1,90,90.66l-1.38-.2a.76.76,0,0,0-.68.24l-.94,1a.78.78,0,0,1-1.34-.39L85.39,90a.78.78,0,0,0-.44-.57l-1.27-.58a.77.77,0,0,1,0-1.39l1.23-.65a.77.77,0,0,0,.41-.59l.16-1.38a.77.77,0,0,1,1.31-.46l1,1A.79.79,0,0,0,88.44,85.51Z"/><path class="cls-7" d="M87.94,86l1.49-.35a.59.59,0,0,1,.68.82l-.63,1.39a.62.62,0,0,0,0,.56l.8,1.3a.6.6,0,0,1-.58.91l-1.52-.17a.6.6,0,0,0-.51.21l-1,1.16a.59.59,0,0,1-1-.27l-.32-1.49a.61.61,0,0,0-.35-.43L83.6,89A.59.59,0,0,1,83.53,88l1.33-.77a.56.56,0,0,0,.29-.46l.12-1.53a.6.6,0,0,1,1-.39l1.13,1A.6.6,0,0,0,87.94,86Z"/><path class="cls-1" d="M68.09,82.57s7.49-.15,9.74,0,2.22,4.22,2.22,4.22L75.34,88Z"/><path class="cls-6" d="M75.27,82.62l1.24.63a.78.78,0,0,1,0,1.39l-1.26.6a.76.76,0,0,0-.43.57l-.22,1.38a.77.77,0,0,1-1.33.4l-1-1a.77.77,0,0,0-.68-.24l-1.38.21a.78.78,0,0,1-.8-1.14l.67-1.22a.79.79,0,0,0,0-.72l-.63-1.24a.77.77,0,0,1,.83-1.11l1.37.26a.79.79,0,0,0,.69-.21l1-1a.77.77,0,0,1,1.31.45L74.85,82A.8.8,0,0,0,75.27,82.62Z"/><path class="cls-7" d="M74.58,82.68l1.38.65a.6.6,0,0,1,0,1.07l-1.36.7a.62.62,0,0,0-.32.45l-.19,1.52a.59.59,0,0,1-1,.35L72,86.35a.62.62,0,0,0-.53-.17L70,86.47a.59.59,0,0,1-.64-.85L70,84.25a.63.63,0,0,0,0-.55l-.74-1.34a.6.6,0,0,1,.61-.88l1.51.23a.59.59,0,0,0,.52-.18l1-1.11a.59.59,0,0,1,1,.31l.25,1.51A.61.61,0,0,0,74.58,82.68Z"/><path class="cls-7" d="M77.51,81.78l.27.41a.28.28,0,0,1-.25.43l-.49,0a.26.26,0,0,0-.23.1l-.31.39A.28.28,0,0,1,76,83l-.11-.48a.27.27,0,0,0-.17-.19l-.46-.18a.28.28,0,0,1,0-.49l.42-.26a.27.27,0,0,0,.13-.22l0-.49a.28.28,0,0,1,.45-.2l.38.32a.28.28,0,0,0,.25.06l.47-.13a.27.27,0,0,1,.32.37l-.18.46A.25.25,0,0,0,77.51,81.78Z"/><path class="cls-6" d="M77.29,81.68l.31.44a.21.21,0,0,1-.18.33l-.54,0a.23.23,0,0,0-.18.09l-.32.43a.21.21,0,0,1-.37-.07l-.15-.52a.2.2,0,0,0-.13-.14l-.52-.17a.22.22,0,0,1,0-.38l.45-.3a.21.21,0,0,0,.1-.17v-.54a.21.21,0,0,1,.34-.17l.43.34a.21.21,0,0,0,.19,0l.52-.16a.21.21,0,0,1,.26.28l-.19.5A.24.24,0,0,0,77.29,81.68Z"/><path class="cls-6" d="M76.85,86.42l-1.39-.06a.78.78,0,0,1-.56-1.28L75.8,84a.76.76,0,0,0,.15-.7L75.59,82a.77.77,0,0,1,1-.92l1.3.53a.78.78,0,0,0,.71-.07l1.17-.76a.78.78,0,0,1,1.2.71l-.1,1.38a.76.76,0,0,0,.29.66l1.08.87A.77.77,0,0,1,82,85.74l-1.35.33a.78.78,0,0,0-.54.47l-.49,1.3a.78.78,0,0,1-1.39.13l-.73-1.18A.81.81,0,0,0,76.85,86.42Z"/><path class="cls-7" d="M77.46,86.08l-1.53,0a.59.59,0,0,1-.46-1l.94-1.2a.61.61,0,0,0,.1-.55l-.45-1.46a.6.6,0,0,1,.77-.74l1.44.53a.6.6,0,0,0,.55-.07l1.24-.89a.6.6,0,0,1,.94.51l0,1.53a.58.58,0,0,0,.24.5l1.22.91a.6.6,0,0,1-.19,1.06l-1.47.41a.61.61,0,0,0-.4.38l-.49,1.45a.6.6,0,0,1-1.06.14L78,86.34A.61.61,0,0,0,77.46,86.08Z"/><path class="cls-6" d="M81.91,83.4l.9-1.06a.77.77,0,0,1,1.35.33L84.45,84a.79.79,0,0,0,.47.55l1.29.52a.77.77,0,0,1,.09,1.38l-1.2.71a.77.77,0,0,0-.38.61l-.11,1.38a.78.78,0,0,1-1.29.53l-1-.93a.8.8,0,0,0-.7-.17L80.23,89a.78.78,0,0,1-.9-1.06l.56-1.28a.74.74,0,0,0,0-.72l-.73-1.17a.78.78,0,0,1,.74-1.18l1.39.13A.76.76,0,0,0,81.91,83.4Z"/><path class="cls-7" d="M81.81,84.09l1-1.2a.59.59,0,0,1,1,.22l.38,1.48a.61.61,0,0,0,.37.41l1.44.53a.59.59,0,0,1,.11,1.06l-1.29.82a.61.61,0,0,0-.28.48l0,1.53a.6.6,0,0,1-1,.43l-1.18-1a.59.59,0,0,0-.54-.12l-1.47.42a.6.6,0,0,1-.72-.79L80.16,87a.59.59,0,0,0-.06-.55l-.85-1.27a.6.6,0,0,1,.53-.93l1.53.1A.61.61,0,0,0,81.81,84.09Z"/><path class="cls-1" d="M63.42,81.35l4.67,1.22L69.2,87s-.76,1.21-2.89,0a5.41,5.41,0,0,1-2.6-2.87s-.09-1.73-.19-2.25Z"/><path class="cls-10" d="M104.65,104.57l-18.46,1.22a16.54,16.54,0,0,1-16.72-11.1,16.92,16.92,0,0,1-.86-4.3l-.52-7.82s17.76,8.09,27.12,8.19S105.12,82,105.12,82A61.59,61.59,0,0,1,110.24,95C112.17,102.37,110.52,104.18,104.65,104.57Z"/><path class="cls-8" d="M85.56,99.77a9.3,9.3,0,0,1-4-2.2,3.69,3.69,0,0,1-1.25-3.07c0-.08,0-.12,0-.21A1.89,1.89,0,0,1,81,93a2,2,0,0,1,1.2-.48,6.08,6.08,0,0,1,1.55.12,13.1,13.1,0,0,1,1.79.51A11.77,11.77,0,0,1,88.92,95a4.06,4.06,0,0,1,1.64,2.63c0,.08,0,.12,0,.2a2,2,0,0,1-.19,1.37,1.72,1.72,0,0,1-1.05.78,4.89,4.89,0,0,1-1.68.19A8.82,8.82,0,0,1,85.56,99.77Zm0-1.3c1.38.43,2,0,1.9-1.22,0-.13,0-.2,0-.32a2.74,2.74,0,0,0-.54-1.56,3.23,3.23,0,0,0-1.47-.91c-1.25-.44-1.93-.13-2,1.07,0,.13,0,.19,0,.32a2.43,2.43,0,0,0,.49,1.65A3.27,3.27,0,0,0,85.53,98.47Z"/><path class="cls-8" d="M92.94,101.08a36.53,36.53,0,0,1-1.26-6.24,23.32,23.32,0,0,0,2.75.29c.24,1.13.38,1.69.69,2.82a32.56,32.56,0,0,0,2.39-2.78c1.09,0,1.64-.08,2.72-.21A29.9,29.9,0,0,1,98,98a27.23,27.23,0,0,0,5.24,2.6,32.06,32.06,0,0,1-3.54.49,28.94,28.94,0,0,1-4.44-2.65c.33,1.12.52,1.68.93,2.79A29.46,29.46,0,0,1,92.94,101.08Z"/><path class="cls-11" d="M75.53,67.49a3.19,3.19,0,0,0-1.86,0,2,2,0,0,0-1.27,1.52,5.36,5.36,0,0,0,0,2.22,2.27,2.27,0,0,0,1.44,1.53,5.43,5.43,0,0,0,2.34.19A2.31,2.31,0,0,0,78,72.12a3.14,3.14,0,0,0,.36-2,1.54,1.54,0,0,0-1.5-1.26,1.85,1.85,0,0,0-2.1,1,1.13,1.13,0,0,0,1.29,1.47.42.42,0,0,0-.22-.8.28.28,0,0,1-.3-.23.55.55,0,0,1,.26-.49,1.55,1.55,0,0,1,1.36-.07c.48.19.42.72.38,1.16A1.25,1.25,0,0,1,77,72a3.23,3.23,0,0,1-1.38.22A3.64,3.64,0,0,1,74,72c-1-.46-.94-1.63-.8-2.57a1.23,1.23,0,0,1,.74-1.09,2.35,2.35,0,0,1,1.39,0,.42.42,0,0,0,.22-.8Z"/></g></g></svg>