<svg xmlns="http://www.w3.org/2000/svg" height="240" width="240" viewBox="0 0 137.84 125.18"><defs><style>.cls-1{fill:#ffa200;}.cls-2{fill:#fdcd00;}.cls-3{fill:#fff;stroke-width:1.8px;}.cls-3,.cls-6{stroke:#000;stroke-miterlimit:10;}.cls-4{opacity:0.68;}.cls-5{fill:#735dff;}.cls-6{fill:none;stroke-width:0.14px;}</style></defs><g id="레이어_2" data-name="레이어 2"><g id="Layer_1" data-name="Layer 1"><polygon points="114.71 0 88.65 22.72 94.21 23.39 76.09 60.5 90.58 62.22 109.91 25.04 115.27 25.68 114.71 0"/><polygon points="58.3 30.73 76.39 68.19 87.99 65.44 70.06 27.95 58.3 30.73"/><polygon points="51.12 74.21 50.74 32.57 62.65 29.75 63.19 71.36 51.12 74.21"/><polygon points="17.17 61.07 55.72 83.32 64.2 76.08 25.77 53.73 17.17 61.07"/><path class="cls-1" d="M129.58,29.64s10.47,5.28,7.66,14.79-8,7.88-8,7.88Z"/><path class="cls-1" d="M35.77,88.4s8.68,42.35,50.54,36.16,40.29-43.43,35.93-62.64S35.77,88.4,35.77,88.4Z"/><rect class="cls-1" x="94.41" y="23.72" width="24.55" height="82.38" rx="11.14" transform="translate(147.6 182.9) rotate(-140.45)"/><path class="cls-1" d="M38.21,76.13s4.43,1.11,4.9-3.16,3.26,2.93,3.26,2.93l-.3,5.31L40,80.88Z"/><path class="cls-1" d="M35.78,77.58s5.89,1.06,7.86-4.29,8.58,10.88,8.58,10.88l-5.81,7.2Z"/><rect class="cls-1" x="18.26" y="56.16" width="27.28" height="64.55" rx="12.38" transform="translate(125.84 84.76) rotate(107.59)"/><rect class="cls-1" x="44.25" y="51.27" width="31.59" height="56.54" rx="14.33" transform="matrix(-0.99, 0.15, -0.15, -0.99, 131.08, 149.44)"/><rect class="cls-1" x="68.24" y="46.4" width="31.63" height="57.85" rx="14.36" transform="translate(178.23 137.54) rotate(171.59)"/><rect class="cls-2" x="47.37" y="53.96" width="31.01" height="55.5" rx="14.07" transform="translate(137.03 153.34) rotate(171.59)"/><rect class="cls-2" x="70.93" y="49.22" width="30.44" height="56.79" rx="13.82" transform="translate(182.73 141.79) rotate(171.59)"/><rect class="cls-2" x="95.78" y="21.88" width="20.79" height="82.38" rx="9.43" transform="translate(147.88 179.31) rotate(-140.45)"/><path class="cls-2" d="M31.25,87.83S39.93,130.18,81.79,124s40.29-43.43,35.93-62.64S31.25,87.83,31.25,87.83Z"/><rect class="cls-2" x="18.09" y="58.78" width="27.28" height="64.55" rx="12.38" transform="translate(128.12 88.33) rotate(107.59)"/><path class="cls-1" d="M22.42,92.28l-4.25,11.93S-.22,100.57,5,86.06Z"/><path class="cls-1" d="M127.63,47.36,130.38,44a7.11,7.11,0,0,0-.95-10h0a7.11,7.11,0,0,0-10,.95l-2.75,3.33Z"/><path class="cls-2" d="M38.35,78.84s5.9,1,7.78-4.43,8.76,10.73,8.76,10.73l-5.68,7.3Z"/><path d="M76.56,100.7a15.71,15.71,0,0,0,12.81-3.4c.89-.74-.38-2-1.26-1.27A13.74,13.74,0,0,1,77,99c-1.13-.2-1.61,1.53-.47,1.74Z"/><path d="M74.77,98.93a2.09,2.09,0,0,1,.24.28L74.87,99a3,3,0,0,1,.35.59l-.09-.21a3,3,0,0,1,.2.73l0-.24a3,3,0,0,1,0,.73l0-.24a2.21,2.21,0,0,1-.08.35.9.9,0,1,0,1.74.48A3.67,3.67,0,0,0,76,97.67a.9.9,0,0,0-1.27,0,.92.92,0,0,0,0,1.26Z"/><path d="M88.27,93.82a3.17,3.17,0,0,0,2.31,3.71.9.9,0,1,0,.48-1.73,2.29,2.29,0,0,1-.37-.12l.22.09a2.28,2.28,0,0,1-.46-.26l.18.14a2.85,2.85,0,0,1-.42-.43l.14.18a2.43,2.43,0,0,1-.3-.52l.09.22a2.38,2.38,0,0,1-.16-.58l0,.24a1.75,1.75,0,0,1,0-.56l0,.24a.68.68,0,0,1,0-.14.92.92,0,0,0-.09-.69.89.89,0,0,0-1.64.21Z"/><circle class="cls-3" cx="66.78" cy="86.69" r="7.84"/><circle class="cls-3" cx="89.3" cy="81.56" r="7.84"/><path d="M67.84,83.45a2.92,2.92,0,0,0-2.33,3.42,2.54,2.54,0,0,0,.14.47l1.51-.16-.62,1.41a2.89,2.89,0,0,0,2.39.61,2.93,2.93,0,0,0-1.09-5.75Z"/><path d="M90.56,78.28a2.92,2.92,0,0,0-2.33,3.42,2.54,2.54,0,0,0,.14.47L89.88,82l-.63,1.41a2.93,2.93,0,1,0,1.31-5.14Z"/><path d="M75.25,84.8a2,2,0,0,1,.94-.82,7.36,7.36,0,0,1,1.46-.51,13.55,13.55,0,0,1,3.7-.4.9.9,0,1,0,0-1.79,14.64,14.64,0,0,0-4.42.53,5.05,5.05,0,0,0-3.23,2.08.9.9,0,0,0,1.55.91Z"/><g class="cls-4"><path class="cls-1" d="M70.13,57.68,71.87,69.4a.82.82,0,0,0,1,.58.85.85,0,0,0,.58-1L71.74,57.24a.84.84,0,0,0-1-.58.86.86,0,0,0-.58,1Z"/></g><polygon class="cls-5" points="94.95 3.91 97.59 6.17 99.57 3.32 99.83 6.78 103.25 6.16 100.99 8.8 103.84 10.78 100.38 11.04 101 14.46 98.36 12.2 96.38 15.05 96.11 11.59 92.7 12.21 94.96 9.57 92.11 7.59 95.57 7.32 94.95 3.91"/><polygon class="cls-1" points="119.38 13.95 120.92 15.28 122.08 13.61 122.24 15.63 124.24 15.27 122.91 16.82 124.58 17.98 122.56 18.13 122.92 20.13 121.37 18.81 120.21 20.48 120.06 18.45 118.06 18.81 119.38 17.27 117.71 16.11 119.74 15.96 119.38 13.95"/><polygon class="cls-5" points="120.41 3.87 121.33 4.66 122.02 3.66 122.12 4.87 123.31 4.65 122.52 5.57 123.52 6.26 122.31 6.36 122.52 7.55 121.6 6.76 120.91 7.76 120.82 6.55 119.63 6.76 120.42 5.84 119.42 5.15 120.63 5.06 120.41 3.87"/><ellipse class="cls-5" cx="104.08" cy="88.69" rx="7.34" ry="4.61" transform="translate(-21.22 33.92) rotate(-16.83)"/><ellipse class="cls-6" cx="105.35" cy="88.31" rx="7.34" ry="4.61" transform="translate(-21.05 34.27) rotate(-16.83)"/><ellipse class="cls-5" cx="59.37" cy="103.12" rx="7.34" ry="4.61" transform="translate(-27.31 21.6) rotate(-16.83)"/><ellipse class="cls-6" cx="60.77" cy="102.7" rx="7.34" ry="4.61" transform="translate(-27.13 21.99) rotate(-16.83)"/></g></g></svg>