<svg xmlns="http://www.w3.org/2000/svg" height="240" width="240" viewBox="0 0 139.03 119.15"><defs><style>.cls-1{fill:#ffe801;}.cls-2{fill:#be1d38;}.cls-3{fill:#fd3036;}.cls-4{opacity:0.61;}.cls-5{fill:#1a1819;}.cls-6{fill:#fff;}.cls-7{fill:#c9dae4;}</style></defs><g id="레이어_2" data-name="레이어 2"><g id="Layer_1" data-name="Layer 1"><path d="M26,74.07S17.58,78,11.79,75.7C9,74.52,7.57,73.62,7.16,71.4S1.48,69.17.94,65.91s.69-3.72.69-3.72S5.87,66.26,6.82,65,7.74,61.52,4,57.59.13,52,0,51c1.05,1,1.47,2.3,2.77,2.64S5.54,51.8,3.46,49s-2.31-4.94-1.1-7-.16-1.56-.81-4.49a4.52,4.52,0,0,1,1-4.37s1.22,4.87,3,3.77,2.23-1.07,1.15-5.05c.24-3.75,3.05-4.43,3.05-4.43s.43,7.9,3,7.86,5.09-1.71,4-3.37-1.5-1.85-1.5-1.85,3.25,0,3.87,1,2,7.39,3,7.05,2.25-1.27,2.15-2.22c1.91.89,2.49,3.82,2.61,5.36s4,6.57,4.37,5a9,9,0,0,0,.25-3.64c-.11-1,2,5.69,1.74,7.59s-1.37,6.66.11,7.15,3.31-.26,3.56-1.45a11.61,11.61,0,0,0,.22-2.7c-.05-.13,3.33,3.11,2.58,4.69s-2.26,2.86-2.28,4,.58,3.88-1.51,6S26,74.07,26,74.07Z"/><path class="cls-1" d="M28.43,71.59S21.16,74.93,16.19,73c-2.42-1-3.63-1.79-4-3.7s-4.89-1.91-5.35-4.71.59-3.2.59-3.2,3.65,3.5,4.46,2.4.79-3-2.41-6.35-3.34-4.8-3.45-5.68c.9.86,1.27,2,2.38,2.26s2.39-1.56.6-3.94-2-4.24-.95-6-.14-1.34-.69-3.86a3.9,3.9,0,0,1,.83-3.76s1,4.19,2.55,3.24,1.91-.92,1-4.34c.21-3.22,2.62-3.8,2.62-3.8s.37,6.79,2.57,6.75,4.36-1.47,3.45-2.9-1.29-1.58-1.29-1.58,2.79,0,3.33.84,1.67,6.35,2.53,6,1.93-1.09,1.85-1.9c1.64.77,2.14,3.28,2.24,4.61s3.4,5.64,3.76,4.3A7.81,7.81,0,0,0,33,44.57c-.1-.83,1.73,4.89,1.49,6.53s-1.17,5.72.1,6.13S37.46,57,37.68,56a9.44,9.44,0,0,0,.19-2.32c0-.11,2.86,2.68,2.22,4s-2,2.46-2,3.45.49,3.33-1.3,5.16S28.43,71.59,28.43,71.59Z"/><path d="M137.87,65.77A20.62,20.62,0,0,1,135.16,70c-1.42,1.71-4.95,1.31-6.88-.77s3.93-8.82,6-11.66,4.5-15.45,3.85-13.8a16.89,16.89,0,0,1-3.56,5.66c-2,2.16-3.73-9.33-2.58-11.94s2.78-7.84.53-11c-.68,1.62-3.46,2-5.35,1.7s1.63-11.91,1.45-14-5.29-5-5.29-5,.53.68.78,4.3-5.22,4.09-9.31,1.93S116.92.13,116.92.13s-5-1.35-8.69,4.5c-1.75,7.37-2.48,6.89-6.21,7.15s-1.43-8.69-1.43-8.69S96.77,4,95.25,9.31s1.1,5.67-2.63,8l-.24.16a21.92,21.92,0,0,0-3.13-2.21s.47.6.68,3.8a2.8,2.8,0,0,1,0,.72A8.4,8.4,0,0,0,89.1,21c-1.51,1.23-4.77,1.07-7.38-.31C78.11,18.83,83.56,7.2,83.56,7.2s-4.45-1.19-7.67,4c-1.54,6.51-2.18,6.08-5.48,6.31s-1.26-7.67-1.26-7.67-3.37.81-4.72,5.49,1,5-2.31,7-4.65,5.31-3.85,10.87-2.93,7.49-4.48,6-1.16-3.66-1.86-5.9c-.62,1.57-1.66,4.06.55,12.54s.57,11.63-1.74,12.72-5.13-8-5.13-8-2.07-.3-3.82,4.77,5.63,9.15,4.5,12.65.15,5.86,3.19,9.74c6.38,7.69,21.21,8.69,21.21,8.69a136.11,136.11,0,0,0,15.54-.65,51.73,51.73,0,0,0,16.1,4.09s15.67.24,20.83-1.38,6.61-6.54,7.63-8.39,4.54-2.61,7.1-4.49S137.9,65.53,137.87,65.77Z"/><path class="cls-1" d="M128.92,66a16.58,16.58,0,0,1-2.2,3.39c-1.16,1.38-4,1-5.6-.64s3.19-7.13,4.89-9.43,3.65-12.5,3.12-11.17a13.65,13.65,0,0,1-2.89,4.58c-1.62,1.75-3-7.55-2.1-9.66s2.25-6.34.43-8.87c-.55,1.31-2.82,1.63-4.35,1.37s1.31-9.64,1.17-11.31-4.3-4-4.3-4,.43.55.63,3.48-4.24,3.31-7.56,1.56,1.69-12.41,1.69-12.41-4.1-1.09-7.06,3.64c-1.42,6-2,5.57-5,5.78s-1.17-7-1.17-7-3.1.74-4.34,5,.9,4.59-2.13,6.45l-.19.13A18.17,18.17,0,0,0,89.37,25s.38.49.56,3.07a2.78,2.78,0,0,1,0,.59,6.44,6.44,0,0,0-.64,1c-1.22,1-3.87.87-6-.25-2.93-1.54,1.49-10.95,1.49-10.95s-3.62-1-6.23,3.21c-1.25,5.27-1.78,4.92-4.45,5.1s-1-6.21-1-6.21-2.75.65-3.84,4.45.8,4.05-1.87,5.69-3.77,4.3-3.12,8.8-2.38,6.06-3.65,4.86-.94-3-1.51-4.77c-.5,1.27-1.35,3.28.45,10.15s.47,9.4-1.4,10.29-4.18-6.47-4.18-6.47-1.68-.24-3.1,3.86,4.58,7.41,3.66,10.24.13,4.75,2.6,7.88c5.19,6.23,17.24,7.05,17.24,7.05A110.52,110.52,0,0,0,87,82.13,42.08,42.08,0,0,0,100,85.45s12.73.2,16.93-1.1,5.37-5.3,6.2-6.79,3.69-2.11,5.77-3.64S128.94,65.75,128.92,66Z"/><ellipse class="cls-2" cx="70.71" cy="78.33" rx="48.05" ry="40.82"/><ellipse class="cls-3" cx="71.22" cy="72.92" rx="48.06" ry="40.82"/><rect class="cls-2" x="23.15" y="34" width="28.03" height="44.5" rx="12.29" transform="translate(74.34 112.49) rotate(-180)"/><rect class="cls-2" x="47.18" y="24.2" width="28.03" height="55.25" rx="12.29" transform="translate(122.38 103.65) rotate(180)"/><rect class="cls-2" x="72.26" y="22.59" width="28.03" height="56.53" rx="12.29" transform="translate(172.55 101.71) rotate(180)"/><rect class="cls-3" x="23.15" y="29.58" width="28.03" height="44.5" rx="12.29" transform="translate(74.34 103.65) rotate(-180)"/><rect class="cls-3" x="46.77" y="19.74" width="28.03" height="55.25" rx="12.29" transform="translate(121.57 94.73) rotate(180)"/><rect class="cls-3" x="72.84" y="18.46" width="28.03" height="56.53" rx="12.29" transform="translate(173.7 93.45) rotate(180)"/><path class="cls-2" d="M28.59,55.94v4.92A8.1,8.1,0,0,0,36.7,69h0a8.1,8.1,0,0,0,8.1-8.1V55.94Z"/><path class="cls-2" d="M52.68,57v4.92a8.1,8.1,0,0,0,8.1,8.1h0a8.11,8.11,0,0,0,8.11-8.1V57Z"/><path class="cls-2" d="M78.17,57v4.92a8.1,8.1,0,0,0,8.1,8.1h0a8.1,8.1,0,0,0,8.1-8.1V57Z"/><path class="cls-2" d="M119.2,80.6s-16.13,8.3-21.8-7.11c-5.57-15.12,17-10.63,17-10.63Z"/><g class="cls-4"><path class="cls-2" d="M47.2,36.12V62.45a.71.71,0,0,0,1.41,0V36.12a.71.71,0,0,0-1.41,0Z"/></g><g class="cls-4"><path class="cls-2" d="M73.08,33.27V59.61a.71.71,0,0,0,1.41,0V33.27a.71.71,0,0,0-1.41,0Z"/></g><path class="cls-5" d="M79.8,88.63a5.15,5.15,0,0,1,2.38-1.38c1.07-.37,2.16-.71,3.25-1A66.37,66.37,0,0,1,92,84.73c.74-.13.42-1.26-.31-1.13a67.25,67.25,0,0,0-7,1.63c-1.09.32-2.19.66-3.26,1A5.57,5.57,0,0,0,79,87.81c-.48.57.34,1.4.83.82Z"/><path class="cls-5" d="M80.07,87.05a2,2,0,0,0-1.46,2.34h0a4.7,4.7,0,1,0,9-2.86L87,84.83Z"/><rect class="cls-6" x="84.26" y="86.69" width="1.9" height="1.21" rx="0.36" transform="translate(-27.46 40.53) rotate(-23.15)"/><path class="cls-5" d="M65.37,87.54A5.46,5.46,0,0,0,63,86.15c-1.14-.37-2.3-.66-3.47-.94a71.49,71.49,0,0,0-7.13-1.3c-.75-.09-.74,1.08,0,1.17A64.64,64.64,0,0,1,59,86.29c1,.24,2.1.52,3.14.82a5.16,5.16,0,0,1,2.46,1.25c.51.55,1.34-.27.82-.82Z"/><path class="cls-5" d="M64.26,86.83a1.93,1.93,0,0,1,1.52,2.25h0a4.62,4.62,0,1,1-8.92-2.38L57.32,85Z"/><rect class="cls-6" x="57.9" y="86.75" width="1.9" height="1.21" rx="0.36" transform="translate(83.57 189.73) rotate(-159.6)"/><path class="cls-7" d="M98.6,55.36H26.25c-1.71,0-3.09-.47-3.09-1.06l.13-8.55,78-2.25.43,10.8C101.7,54.89,100.31,55.36,98.6,55.36Z"/><path class="cls-6" d="M101.8,53.51l-.09-7.08c0-.58-1.39-1.06-3.1-1.06H26a7.27,7.27,0,0,0-2.08.28c-2.1-1.91-6.26-5.41-7.86-4.46-2.17,1.3-4.84,8.11-1.51,8.94,1.12.28,5.33.59,7.07.7-1.83.85-6.19,1.64-7.26,2.43-2.76,2.05,2.51,7.46,5.06,7.86,1.39.22,3.1-2.41,4.37-4.85Z"/><path class="cls-2" d="M115.74,77.84h0c-7.5,3.91-15.83,1.41-18.61-5.56L90.57,55.77c-2.78-7,1.05-15.8,8.55-19.7h0c7.49-3.91,15.82-1.42,18.6,5.56l6.57,16.51C127.07,65.11,123.24,73.94,115.74,77.84Z"/><path class="cls-3" d="M119.48,80.54h0c-7.4,3.76-15.7,1.21-18.54-5.7,0,0-1.81-6.38-2-6.68l-4.77-9.67c-2.84-6.91.85-15.57,8.25-19.33h0c7.39-3.76,15.69-1.21,18.53,5.7l6.73,16.35C130.56,68.12,126.87,76.78,119.48,80.54Z"/><path class="cls-2" d="M116.82,52.6l-2.35-4.55a8.44,8.44,0,0,0-11.37-3.6h0a8.43,8.43,0,0,0-3.6,11.36l2.36,4.55Z"/><path class="cls-2" d="M25.42,56.21l-1.52.06V45.65l.64-.15.36,0,.64-.07Z"/><path class="cls-2" d="M67.78,100.82a57.44,57.44,0,0,1,11-2.2.86.86,0,0,0,.83-.83.83.83,0,0,0-.83-.83,59.75,59.75,0,0,0-11.4,2.25.84.84,0,0,0,.45,1.61Z"/></g></g></svg>