<svg xmlns="http://www.w3.org/2000/svg" height="240" width="240"  viewBox="0 0 150.56 125.77"><defs><style>.cls-1,.cls-15{fill:#017afb;}.cls-2{fill:#e72600;}.cls-3,.cls-7{fill:#dc2a00;}.cls-4{fill:#ff5512;}.cls-5{fill:#f3b900;}.cls-6{fill:#ffe740;}.cls-7{opacity:0.46;}.cls-8{fill:#040002;}.cls-9{fill:#09cbc1;}.cls-10{fill:#09e7e2;}.cls-11{fill:#09b9a7;}.cls-12{fill:#0c867b;}.cls-13{fill:#fff;}.cls-14{font-size:5.87px;fill:#ff3000;}.cls-14,.cls-15,.cls-16{font-family:AppleSDGothicNeoH00;}.cls-15,.cls-16{font-size:12.46px;}.cls-16{fill:#231815;}</style></defs><g id="레이어_2" data-name="레이어 2"><g id="Layer_1" data-name="Layer 1"><polygon points="49.88 117.3 150.56 117.3 150.56 34.48 49.88 117.3"/><polygon class="cls-1" points="29.22 117.3 126.48 117.3 126.48 37.29 29.22 117.3"/><path class="cls-2" d="M12.82,45.05A16,16,0,0,0,2.71,53.82c-3.11,7.09,7.73,7.58,8.38,7.9S12.82,45.05,12.82,45.05Z"/><path class="cls-3" d="M102.49,16.83S97.76,12,94.41,9.88s-3.58,7.49-3.58,7.49Z"/><ellipse class="cls-3" cx="67.47" cy="89.29" rx="37.59" ry="36.48"/><rect class="cls-3" x="28.47" y="8.97" width="28.13" height="89.69" rx="12.29"/><rect class="cls-3" x="14.4" y="41.25" width="27.56" height="66.24" rx="12.04" transform="translate(-44.34 41.71) rotate(-45)"/><rect class="cls-3" x="51.24" width="27.94" height="89.69" rx="12.21"/><rect class="cls-3" x="72.17" y="7.24" width="28.07" height="85.63" rx="12.27"/><circle class="cls-4" cx="69.14" cy="84.63" r="36.04"/><rect class="cls-4" x="19.74" y="37.75" width="26.73" height="69.69" rx="11.68" transform="translate(-41.64 44.67) rotate(-45)"/><rect class="cls-4" x="34.95" y="11.51" width="26.73" height="89.69" rx="11.68"/><rect class="cls-4" x="56.82" y="2.54" width="26.73" height="89.69" rx="11.68"/><rect class="cls-4" x="78.44" y="11.51" width="26.73" height="89.69" rx="11.68"/><path class="cls-5" d="M39.16,60.86,21.8,78.61a1.06,1.06,0,0,1-1.5,0l-6.1-6L31.29,51.89l7.85,7.47A1.06,1.06,0,0,1,39.16,60.86Z"/><path class="cls-3" d="M56.44,16.82V53.4a.84.84,0,0,0,1.67,0V16.82a.84.84,0,0,0-1.67,0Z"/><path class="cls-3" d="M82.4,16.82V53.4a.83.83,0,0,0,1.66,0V16.82a.83.83,0,0,0-1.66,0Z"/><path class="cls-6" d="M38.6,58.79,21.67,80.1l-7.08-6.93a1.06,1.06,0,0,1,0-1.5L32,53.86a1.06,1.06,0,0,1,1.5,0Z"/><path class="cls-7" d="M75.34,84.67,71.55,82l-1,.2L69.37,81l-2.44-.57-1.72,1.06a24.82,24.82,0,0,1,3.53,2.36,27.41,27.41,0,0,1,3.11,3.85h0a2.59,2.59,0,0,0,1.18,1,5.09,5.09,0,0,0,2.57,0,2.31,2.31,0,0,0,1.47-1l.57-.86Z"/><rect class="cls-8" x="64.81" y="79.78" width="9.23" height="2.79" rx="0.82"/><path class="cls-9" d="M77.65,86.78s-.61,2-3.5.86c-1.05-.46-1.5-1.22-2-2.75a2.33,2.33,0,0,0-1.51-1.48,22.49,22.49,0,0,0-2.37-.82l.16-.66,6.18.85,2.89,2.09.28,1A4.39,4.39,0,0,1,77.65,86.78Z"/><path class="cls-10" d="M69.89,80.48l-1.45,1.45s6.82,1.63,7.63,2.08,2,1.5,1.58,2.77c.51-1.52,1-2.42-.22-3.52a6.32,6.32,0,0,0-3.23-1.62C72.89,81.27,69.89,80.48,69.89,80.48Z"/><polygon class="cls-9" points="74.72 82.07 74.09 82.84 75.47 83.45 76 82.46 74.72 82.07"/><polygon class="cls-11" points="74.89 82.68 76 82.46 75.47 83.45 74.68 82.9 74.89 82.68"/><polygon class="cls-11" points="74.72 82.07 74.73 82.58 74.54 82.77 74.09 82.84 74.72 82.07"/><polygon class="cls-12" points="74.89 82.68 74.73 82.58 74.54 82.77 74.68 82.9 74.89 82.68"/><path class="cls-7" d="M69.86,68.33H51.2v1.14a9.33,9.33,0,0,0,18.23,2.81,9.33,9.33,0,0,0,18.22-2.81V68.33Z"/><path class="cls-8" d="M53.13,68.57H68a0,0,0,0,1,0,0v3.31a4.38,4.38,0,0,1-4.38,4.38H57.52a4.38,4.38,0,0,1-4.38-4.38V68.57A0,0,0,0,1,53.13,68.57Z"/><path class="cls-8" d="M70.48,68.57H85.31a0,0,0,0,1,0,0v3.31a4.38,4.38,0,0,1-4.38,4.38H74.86a4.38,4.38,0,0,1-4.38-4.38V68.57A0,0,0,0,1,70.48,68.57Z"/><polygon class="cls-13" points="55.45 68.67 62.81 75.48 65.43 74.69 57.6 68.67 55.45 68.67"/><polygon class="cls-13" points="74.04 68.67 81.4 75.48 84.02 74.69 76.2 68.67 74.04 68.67"/><path class="cls-1" d="M50.77,67.05v1.14a9.33,9.33,0,0,0,9.33,9.32h0a9.33,9.33,0,0,0,9.33-9.32V67.05Zm16.29,2.29a6.55,6.55,0,0,1-6.55,6.55h-.82a6.56,6.56,0,0,1-6.56-6.55v-.67H67.06Z"/><path class="cls-1" d="M68.57,67.05v1.14a9.32,9.32,0,0,0,9.33,9.32h0a9.32,9.32,0,0,0,9.32-9.32V67.05Zm16.29,2.29a6.55,6.55,0,0,1-6.55,6.55h-.83a6.55,6.55,0,0,1-6.55-6.55v-.67H84.86Z"/><path class="cls-7" d="M84.11,60.81c-.43.16-5.42,2.68-8,3.08a12.12,12.12,0,0,1-3.91-.06,3.13,3.13,0,0,0,1.57-2.55c0-1.9-2.15-3.44-4.8-3.44s-4.8,1.54-4.8,3.44a3,3,0,0,0,1.33,2.37h0s-5.29.68-8-1.29-4-1.22-4-1.22-.75.94,1.82,2.79,9.92,2.74,13.41,1.92c4,.7,10.11.49,13.93-2S84.54,60.66,84.11,60.81ZM69,59.82a1.69,1.69,0,1,1-2.06,1.65A1.89,1.89,0,0,1,69,59.82Z"/><path class="cls-8" d="M83.75,60.3c-.42.15-5.29,2.67-7.79,3.07a11.25,11.25,0,0,1-3.81-.06,3.11,3.11,0,0,0,1.53-2.54c0-1.9-2.1-3.44-4.68-3.44s-4.69,1.54-4.69,3.44a3,3,0,0,0,1.3,2.37h0s-5.16.67-7.84-1.29-3.88-1.22-3.88-1.22-.74.94,1.78,2.79,9.68,2.74,13.08,1.92c3.88.7,9.87.49,13.6-2S84.17,60.14,83.75,60.3ZM69,59.31A1.68,1.68,0,1,1,67,61,1.86,1.86,0,0,1,69,59.31Z"/><text class="cls-14" transform="matrix(0.64, -0.77, 0.77, 0.64, 24.02, 73.01)">STOP</text><polygon points="39.77 117.3 11.76 117.3 11.76 94.26 39.77 117.3"/><text class="cls-15" transform="translate(146.67 114.15) rotate(-90)">the RULE</text><text class="cls-16" transform="translate(122.99 114.15) rotate(-90)">Follow</text></g></g></svg>