<svg xmlns="http://www.w3.org/2000/svg" height="220" width="220" xmlns:xlink="http://www.w3.org/1999/xlink" viewBox="0 0 120.29 143.09"><defs><style>.cls-1{fill:url(#linear-gradient);}.cls-2{fill:url(#linear-gradient-2);}.cls-3{fill:#be1d38;}.cls-13,.cls-4,.cls-8{fill:#4a0c4f;}.cls-5{fill:#711786;}.cls-6{fill:#ffdf3f;}.cls-7{fill:#2c0633;}.cls-8{opacity:0.49;}.cls-9{fill:#939efa;}.cls-10{fill:#040002;}.cls-11{fill:#fff;}.cls-12{opacity:0.74;}.cls-13{opacity:0.48;}.cls-14{fill:#300635;}</style><linearGradient id="linear-gradient" x1="85.08" y1="59.21" x2="136.69" y2="59.21" gradientTransform="matrix(0.85, -0.53, 0.53, 0.85, -31.15, 34.78)" gradientUnits="userSpaceOnUse"><stop offset="0" stop-color="#e038f6"/><stop offset="1" stop-color="#574ce4"/></linearGradient><linearGradient id="linear-gradient-2" x1="18.6" y1="162.17" x2="35.74" y2="162.17" gradientTransform="matrix(0.6, -0.8, 0.8, 0.6, -52.24, -48.64)" gradientUnits="userSpaceOnUse"><stop offset="0" stop-color="#e038f6"/><stop offset="1" stop-color="#fdcd00"/></linearGradient></defs><g id="레이어_2" data-name="레이어 2"><g id="Layer_1" data-name="Layer 1"><polygon class="cls-1" points="87.16 14.72 86.4 0.5 93.77 12.69 100.22 0 100.51 14.23 112.44 6.47 105.57 18.94 119.79 18.19 107.6 25.55 120.29 32.01 106.06 32.29 113.82 44.23 101.35 37.35 102.1 51.57 94.74 39.39 88.28 52.08 88 37.84 76.06 45.6 82.94 33.13 68.72 33.89 80.91 26.52 68.22 20.07 82.45 19.79 74.69 7.85 87.16 14.72"/><polygon class="cls-2" points="87.37 20.94 92.05 22.36 92.99 17.56 95.29 21.88 99.35 19.15 97.93 23.83 102.73 24.77 98.41 27.08 101.14 31.14 96.46 29.71 95.52 34.51 93.22 30.2 89.15 32.92 90.58 28.24 85.78 27.3 90.1 25 87.37 20.94"/><path class="cls-3" d="M96.49,29.3s6,7,3.37,14.54-8.12-4.05-8.12-4.05Z"/><rect class="cls-4" x="17.7" y="20.11" width="29.09" height="103.55" rx="12.91" transform="matrix(0.93, 0.36, -0.36, 0.93, 27.97, -6.79)"/><rect class="cls-4" x="49.16" y="12.75" width="25.72" height="86.3" rx="8.25" transform="translate(76.44 -26.34) rotate(57.91)"/><rect class="cls-4" x="49.63" y="14.28" width="25.72" height="86.3" rx="11.41" transform="translate(77.95 -26.02) rotate(57.91)"/><rect class="cls-4" x="31.78" y="47.4" width="25.72" height="86.3" rx="11.41" transform="translate(97.64 4.63) rotate(57.91)"/><rect class="cls-4" x="41.24" y="63.06" width="25.72" height="86.3" rx="11.41" transform="translate(115.34 3.95) rotate(57.91)"/><rect class="cls-5" x="47.89" y="10.14" width="25.72" height="86.3" rx="11.41" transform="translate(73.63 -26.48) rotate(57.91)"/><rect class="cls-5" x="29.52" y="50.2" width="25.72" height="83.53" rx="11.41" transform="translate(97.78 7.21) rotate(57.91)"/><rect class="cls-5" x="39.31" y="65.81" width="25.72" height="83.53" rx="11.41" transform="translate(115.6 6.23) rotate(57.91)"/><path class="cls-5" d="M10.13,99.89l2.6,5.86A12.88,12.88,0,0,1,7.39,88.36L31.85,31.42a12.86,12.86,0,0,1,17.38-5.35h0a12.86,12.86,0,0,1,5.35,17.38L27.51,94.55A12.86,12.86,0,0,1,10.13,99.89Z"/><path class="cls-5" d="M10.27,81.67S1,99,.09,110.57c-.58,7.23,1.8,11.24,5.45,17.51,5.49,9.42,11.77,16.53,14.65,14.73l30-18.8L56,85.86Z"/><path class="cls-5" d="M9.37,83.41s4-9.07,4.72-10.66,3.7,2.14,3.7,2.14l-5.06,8.94Z"/><path class="cls-4" d="M67.67,32.69l6.71,10.7s18.15-8.16,10-21.17Z"/><path class="cls-4" d="M26.05,43.73l11.79,4.54s9.63-17.42-4.71-22.94Z"/><rect class="cls-4" x="49.64" y="48.57" width="26.61" height="6.41" rx="2.06" transform="translate(74.62 -28.89) rotate(58.8)"/><rect class="cls-6" x="50.25" y="48.19" width="26.61" height="6.41" rx="2.06" transform="translate(74.59 -29.6) rotate(58.8)"/><path class="cls-7" d="M41.9,108.91A30.6,30.6,0,0,1,52,100.6c1.15-.58.14-2.31-1-1.73a32.19,32.19,0,0,0-10.53,8.62,1,1,0,0,0,0,1.42,1,1,0,0,0,1.42,0Z"/><path class="cls-8" d="M56.09,73.69l-9.74,6.1-8.68,5.45-1.05.65-8.69,5.45-9.73,6.1c-1.1.69-1.25,2-.27,2.32l8.68,3,8.68,3a2.05,2.05,0,0,0,2.47-1.55l1.06-9.14.67-5.83L45,91.24l8.69,3a2,2,0,0,0,2.47-1.55l1.05-9.13,1-9.13C58.41,73.43,57.19,73,56.09,73.69Z"/><path class="cls-9" d="M26.5,91.57l9.54-6c1.08-.68,2.28-.26,2.16.75l-1,9-1,9a2,2,0,0,1-2.43,1.51l-8.5-3-8.51-3c-1-.33-.82-1.6.26-2.27Z"/><path class="cls-9" d="M44.56,80.25l9.54-6c1.07-.67,2.27-.25,2.16.76l-1,9-1,9a2,2,0,0,1-2.42,1.52l-8.51-3-8.51-3c-1-.33-.81-1.6.27-2.27Z"/><path class="cls-10" d="M27.46,93.1l6.7-4.2c.71-.45,1.51-.17,1.44.51l-.73,6.28L34.15,102a1.34,1.34,0,0,1-1.62,1l-6-2.08-6-2.09c-.64-.22-.54-1.06.18-1.51Z"/><path class="cls-10" d="M45.52,81.78l6.69-4.2c.72-.45,1.52-.17,1.44.51l-.72,6.28-.73,6.28a1.34,1.34,0,0,1-1.61,1l-6-2.08-6-2.09c-.64-.22-.54-1.06.17-1.51Z"/><polygon class="cls-11" points="22.11 99.34 35.14 93.32 34.83 96.06 22.11 99.34"/><polygon class="cls-11" points="40.17 87.96 53.2 81.94 52.88 84.67 40.17 87.96"/><g class="cls-12"><path class="cls-4" d="M45.61,107.94a11.56,11.56,0,0,1,3.74-3.07.5.5,0,0,0,.18-.68.49.49,0,0,0-.68-.18,12,12,0,0,0-4,3.23.52.52,0,0,0,0,.7.5.5,0,0,0,.71,0Z"/></g><path class="cls-13" d="M13.07,89.83,14,95.77a.94.94,0,0,0,1.39.65L34.42,85l-20,3.09A1.57,1.57,0,0,0,13.07,89.83Z"/><path class="cls-13" d="M49.49,67.37l4.91,3.48a1,1,0,0,1,0,1.54L35.49,84.3l11.8-16.47A1.57,1.57,0,0,1,49.49,67.37Z"/><path class="cls-14" d="M13.53,88.49l1,5.79a.92.92,0,0,0,1.34.65L34.42,85,14.84,86.79A1.47,1.47,0,0,0,13.53,88.49Z"/><path class="cls-14" d="M48,67.22l4.74,3.47a.91.91,0,0,1,0,1.49L35.49,84.3,45.92,67.62A1.47,1.47,0,0,1,48,67.22Z"/></g></g></svg>