<svg xmlns="http://www.w3.org/2000/svg" height="190" width="190" xmlns:xlink="http://www.w3.org/1999/xlink" viewBox="0 0 98.38 141.39"><defs><style>.cls-1,.cls-5,.cls-9{fill:none;stroke-miterlimit:10;}.cls-1,.cls-9{stroke:#dc3e8a;}.cls-1{stroke-width:0.55px;}.cls-2{fill:#dc3e8a;}.cls-3{fill:#ff4a96;}.cls-12,.cls-4{fill:#ffdf3f;}.cls-5{stroke:#000;stroke-width:0.14px;}.cls-6{fill:#fcbbd6;}.cls-7{fill:#be1d38;}.cls-8{clip-path:url(#clip-path);}.cls-9{stroke-width:0.83px;}.cls-10{fill:#ffa3cf;opacity:0.42;}.cls-11{fill:#fff;}.cls-12{opacity:0.56;}</style><clipPath id="clip-path"><path class="cls-1" d="M35.18,93.71l0,2.46c-.07,4.77,4.47,8.7,10.15,8.79h0c5.67.09,10.34-3.71,10.41-8.48l0-2.45a3.11,3.11,0,0,0-3.28-2.85L38.54,91A3.09,3.09,0,0,0,35.18,93.71Z"/></clipPath></defs><g id="레이어_2" data-name="레이어 2"><g id="Layer_1" data-name="Layer 1"><path class="cls-2" d="M94.14,99.54s7.35-7.24,2.71-18.39-8.17,4-8.17,4Z"/><path class="cls-2" d="M92.17,68.67s9.61-13-.26-23.09S85.9,63,85.9,63Z"/><circle class="cls-2" cx="40.51" cy="100.88" r="40.51"/><path class="cls-2" d="M29.27,48.84S16.41,61.19,9.65,73.8c-4.55,8.47,23,.18,23,.18Z"/><path class="cls-2" d="M29.27,17.52s14.29-11.59,25.56.42S42.05,31,42.05,31Z"/><rect class="cls-2" x="36.81" y="10.34" width="29" height="50.77" rx="11.68" transform="translate(113.36 28.06) rotate(138.1)"/><path class="cls-2" d="M93.7,76.09h0a14.34,14.34,0,0,1-.34,20.29L63.05,124.29c-5.7,5.39-18.15,9-23.66,3.23L37,124.94c-5.5-5.81-2.93-12.33,2.77-17.72l33.68-31.9A14.35,14.35,0,0,1,93.7,76.09Z"/><rect class="cls-2" x="43" y="31.33" width="29" height="97.31" rx="11.68" transform="translate(41.61 177.2) rotate(-135)"/><rect class="cls-3" x="37.1" y="8.97" width="29" height="66.87" rx="11.68" transform="translate(118.33 39.52) rotate(138.1)"/><rect class="cls-3" x="53.27" y="71.04" width="29" height="66.87" rx="11.68" transform="translate(35.27 224.68) rotate(-131.9)"/><rect class="cls-3" x="42.18" y="36.51" width="29" height="97.31" rx="11.68" transform="translate(36.54 185.47) rotate(-135)"/><circle class="cls-3" cx="41.93" cy="95.86" r="39.1"/><path class="cls-3" d="M26.71,55.06S13.23,67.94,10.08,73.18,22,88.26,22,88.26Z"/><ellipse class="cls-4" cx="54" cy="5.51" rx="4.15" ry="6.59" transform="translate(11.92 39.8) rotate(-45)"/><ellipse class="cls-4" cx="58.74" cy="5.59" rx="6.59" ry="4.15" transform="translate(13.26 43.17) rotate(-45)"/><path class="cls-5" d="M64.1,1.27C62.73-.1,60,.4,57.69,2.35,55.4.34,52.59-.19,51.2,1.2s-.77,4.6,1.59,7a8.3,8.3,0,0,0,3.44,2.14c1.63.78,4.24,0,6.28-2.07C64.87,5.87,65.58,2.75,64.1,1.27Z"/><rect class="cls-2" x="44.52" y="-1.31" width="29" height="81.64" rx="11.68" transform="translate(72.82 109.18) rotate(-135)"/><rect class="cls-3" x="41.01" y="-1.89" width="29" height="97.31" rx="11.68" transform="translate(61.69 119.09) rotate(-135)"/><path class="cls-6" d="M87.89,26.66c0-2.61-3.1-4.76-7.11-5.07-.28-4.09-2.45-7.27-5.09-7.27-2.82,0-5.11,3.64-5.11,8.13a11.29,11.29,0,0,0,1.24,5.31c.81,2.29,4.05,4,7.94,4C84.25,31.77,87.89,29.48,87.89,26.66Z"/><path class="cls-7" d="M38.14,96.26l0,1.73c0,3.36,3.15,6.14,7.16,6.2h0c4,.07,7.29-2.61,7.34-6l0-1.73a2.17,2.17,0,0,0-2.31-2l-9.82-.15A2.18,2.18,0,0,0,38.14,96.26Z"/><g class="cls-8"><path class="cls-7" d="M35.18,93.71l0,2.46c-.07,4.77,4.47,8.7,10.15,8.79h0c5.67.09,10.34-3.71,10.41-8.48l0-2.45a3.11,3.11,0,0,0-3.28-2.85L38.54,91A3.09,3.09,0,0,0,35.18,93.71Z"/><path class="cls-9" d="M35.18,93.71l0,2.46c-.07,4.77,4.47,8.7,10.15,8.79h0c5.67.09,10.34-3.71,10.41-8.48l0-2.45a3.11,3.11,0,0,0-3.28-2.85L38.54,91A3.09,3.09,0,0,0,35.18,93.71Z"/><ellipse class="cls-6" cx="43.34" cy="104.41" rx="7.13" ry="11.06" transform="matrix(0.21, -0.98, 0.98, 0.21, -67.85, 124.84)"/></g><path class="cls-1" d="M35.18,93.71l0,2.46c-.07,4.77,4.47,8.7,10.15,8.79h0c5.67.09,10.34-3.71,10.41-8.48l0-2.45a3.11,3.11,0,0,0-3.28-2.85L38.54,91A3.09,3.09,0,0,0,35.18,93.71Z"/><path class="cls-10" d="M74.07,85.83c-1.66-1.66-5-1-7.76,1.31-2.78-2.43-6.19-3.07-7.87-1.39s-.94,5.57,1.93,8.44a10.06,10.06,0,0,0,4.17,2.58c2,1,5.13,0,7.61-2.5C75,91.41,75.87,87.63,74.07,85.83Z"/><path class="cls-10" d="M31.75,85.83c-1.66-1.66-5-1-7.77,1.31-2.77-2.43-6.18-3.07-7.86-1.39s-.94,5.57,1.92,8.44a10.06,10.06,0,0,0,4.17,2.58c2,1,5.14,0,7.61-2.5C32.68,91.41,33.54,87.63,31.75,85.83Z"/><path d="M23.46,84.93s-1.76-.79-1.58-1.49,3.16-3.34,7.55-4.3,8.9-.3,9.13,0,0,1.69,0,1.69a6.61,6.61,0,0,0,.1,1.53c.13.17-12.68,4.21-13.56,4.39S23.46,84.93,23.46,84.93Z"/><rect class="cls-11" x="31.68" y="79.75" width="3.28" height="1.6" rx="0.44" transform="translate(-8.86 4.27) rotate(-6.47)"/><rect class="cls-11" x="28.85" y="81.98" width="2.14" height="1.43" rx="0.39" transform="translate(-19.88 10.21) rotate(-14.6)"/><path d="M67.06,85.45s1.76-.79,1.58-1.49-3.16-3.34-7.55-4.3-8.9-.3-9.13,0,0,1.69,0,1.69a6.68,6.68,0,0,1-.11,1.53c-.13.17,12.69,4.21,13.57,4.39S67.06,85.45,67.06,85.45Z"/><rect class="cls-11" x="57.07" y="80.95" width="3.28" height="1.6" rx="0.44" transform="translate(107.84 169.6) rotate(-173.53)"/><rect class="cls-11" x="60.95" y="83.21" width="2.14" height="1.43" rx="0.39" transform="matrix(-0.97, -0.25, 0.25, -0.97, 100.88, 180.76)"/><path class="cls-12" d="M76.89,89.57c-1.32-1.33-4-.84-6.19,1-2.21-1.94-4.93-2.45-6.28-1.11S63.68,94,66,96.23a8,8,0,0,0,3.33,2.06c1.57.76,4.09,0,6.07-2C77.64,94,78.33,91,76.89,89.57Z"/><path class="cls-12" d="M24.94,89.57c-1.32-1.33-4-.84-6.19,1-2.22-1.94-4.94-2.45-6.28-1.11S11.72,94,14,96.23a8,8,0,0,0,3.33,2.06c1.57.76,4.09,0,6.07-2C25.69,94,26.37,91,24.94,89.57Z"/><path class="cls-2" d="M74.47,48.19,55,67.61a.63.63,0,0,0,.88.89L75.35,49.07a.62.62,0,0,0-.88-.88Z"/><path class="cls-2" d="M83.52,78.15l-5.68,5.68a.62.62,0,0,0,.88.88L84.4,79a.62.62,0,0,0-.88-.88Z"/></g></g></svg>