<svg xmlns="http://www.w3.org/2000/svg" height="240" width="240" xmlns:xlink="http://www.w3.org/1999/xlink" viewBox="0 0 145.25 140.12"><defs><style>.cls-1{fill:none;}.cls-2{fill:#ff5512;}.cls-3{fill:#fff;}.cls-4{fill:#006ed0;}.cls-5{fill:#017afb;}.cls-6{fill:#003444;}.cls-7,.cls-9{fill:#005486;}.cls-8{clip-path:url(#clip-path);}.cls-9{stroke:#006ed0;stroke-miterlimit:10;stroke-width:1.11px;}.cls-10{fill:#fcbbd6;}</style><clipPath id="clip-path"><path class="cls-1" d="M56.18,103.12H80.94a0,0,0,0,1,0,0v4.15a8.9,8.9,0,0,1-8.9,8.9h-7a8.9,8.9,0,0,1-8.9-8.9v-4.15A0,0,0,0,1,56.18,103.12Z"/></clipPath></defs><g id="레이어_2" data-name="레이어 2"><g id="Layer_1" data-name="Layer 1"><polygon points="26.2 0 43.52 19.95 61.6 0.69 59.74 27.04 86.14 26.2 66.2 43.52 85.46 61.6 59.11 59.74 59.94 86.14 42.62 66.2 24.54 85.46 26.4 59.11 0 59.94 19.95 42.62 0.69 24.54 27.04 26.4 26.2 0"/><polygon class="cls-2" points="36.55 26.42 43.25 34.13 50.24 26.68 49.52 36.87 59.73 36.55 52.01 43.25 59.46 50.24 49.27 49.52 49.59 59.73 42.9 52.01 35.91 59.46 36.63 49.27 26.42 49.59 34.13 42.9 26.68 35.91 36.87 36.63 36.55 26.42"/><path class="cls-2" d="M125.8,68c-2.58,1-17-5.41-21.43-8.45S91,44.25,91,44.25l16.59-24.11a47.78,47.78,0,0,0,12.86,13.45c8.09,5.45,24.09,8.27,24.81,11.06S128.39,66.94,125.8,68Z"/><rect x="84.88" y="14.4" width="3.79" height="82.36" transform="translate(36.47 -34.35) rotate(28.14)"/><path class="cls-3" d="M102.3,40.74a4.05,4.05,0,0,1-1.07-1.62l.84-.68a4.82,4.82,0,0,0,.93,1.45c.42.44.76.54,1,.32a.36.36,0,0,0,.15-.32,1.85,1.85,0,0,0-.26-.52l-.23-.35a1.77,1.77,0,0,1-.37-1.12,1.51,1.51,0,0,1,.64-1,1.56,1.56,0,0,1,1.25-.42,2.33,2.33,0,0,1,1.35.79,4.17,4.17,0,0,1,.94,1.32l-.75.74a5.7,5.7,0,0,0-.88-1.22c-.35-.35-.63-.43-.86-.23a.35.35,0,0,0-.13.3,1.35,1.35,0,0,0,.23.49,4.15,4.15,0,0,0,.24.34,2.3,2.3,0,0,1,.47,1.17,1.4,1.4,0,0,1-.54,1,1.58,1.58,0,0,1-1.38.47A2.88,2.88,0,0,1,102.3,40.74Z"/><path class="cls-3" d="M106.51,44.69c-1.33-1.12-1.46-2.17-.52-3.09s1.45-1.43,2.38-2.41c.45.41.68.62,1.15,1-.89,1-1.35,1.47-2.28,2.43a1,1,0,0,0-.33.68.9.9,0,0,0,.4.63,1,1,0,0,0,.7.29,1.11,1.11,0,0,0,.66-.41c.9-1,1.34-1.49,2.19-2.51.43.35.65.52,1.09.85-.84,1.06-1.27,1.58-2.16,2.6a1.89,1.89,0,0,1-1.47.75A3,3,0,0,1,106.51,44.69Z"/><path class="cls-3" d="M111.58,48.49a2.93,2.93,0,0,1-1.38-1.75,2.37,2.37,0,0,1,.67-2l.11-.13a3.43,3.43,0,0,1,1-.83,2.14,2.14,0,0,1,1-.3,2.83,2.83,0,0,1,1,.14A4.94,4.94,0,0,1,116,45.1l-.61.9a3.68,3.68,0,0,0-.88-.78,1.38,1.38,0,0,0-2.07.34l-.15.19a1.68,1.68,0,0,0-.44,1.12,1.35,1.35,0,0,0,.72.94,3.71,3.71,0,0,0,1.25.53l-.63.85A4.51,4.51,0,0,1,111.58,48.49Z"/><path class="cls-3" d="M116.22,51.24a3,3,0,0,1-1.58-1.63,2.31,2.31,0,0,1,.48-2l.11-.15a3.13,3.13,0,0,1,.87-.9,2.19,2.19,0,0,1,1-.39,2.92,2.92,0,0,1,1,.05,4,4,0,0,1,1,.4,3.78,3.78,0,0,1,1.23.87c-.2.38-.31.56-.52.94a4.22,4.22,0,0,0-1-.7,1.4,1.4,0,0,0-2.06.53,2.26,2.26,0,0,0-.13.2,1.56,1.56,0,0,0-.34,1.15c.06.33.33.62.82.88a3.81,3.81,0,0,0,1.32.41c-.22.37-.33.55-.56.91A4.61,4.61,0,0,1,116.22,51.24Z"/><path class="cls-3" d="M118.66,52.37c1.1-1.83,1.62-2.76,2.61-4.63,1.46.67,2.21,1,3.74,1.54l-.43,1c-.94-.35-1.4-.53-2.31-.92-.18.36-.27.54-.46.9.72.31,1.08.46,1.82.74l-.46.94c-.75-.29-1.12-.44-1.85-.76-.21.4-.32.6-.54,1,1,.43,1.49.63,2.5,1-.19.39-.29.58-.48,1C121.1,53.48,120.27,53.13,118.66,52.37Z"/><path class="cls-3" d="M125.49,55.16a4.73,4.73,0,0,1-1.88-1l.48-1a5.39,5.39,0,0,0,1.65.88c.63.21,1,.15,1.15-.16a.33.33,0,0,0,0-.35,1.94,1.94,0,0,0-.52-.35l-.42-.21a2,2,0,0,1-.94-.84A1.45,1.45,0,0,1,125.1,51a1.64,1.64,0,0,1,1-.94,2.92,2.92,0,0,1,1.75.11,4.91,4.91,0,0,1,1.62.75c-.14.4-.22.6-.36,1a6.32,6.32,0,0,0-1.5-.7c-.54-.16-.86-.11-1,.17a.34.34,0,0,0,0,.34,1.57,1.57,0,0,0,.48.33l.41.2a2.48,2.48,0,0,1,1.07.83,1.29,1.29,0,0,1,0,1.17,1.64,1.64,0,0,1-1.12,1A3.45,3.45,0,0,1,125.49,55.16Z"/><path class="cls-3" d="M130.74,56.59a5,5,0,0,1-2-.81l.4-1a5.9,5.9,0,0,0,1.77.74c.66.14,1.05,0,1.15-.27a.31.31,0,0,0-.05-.34,1.73,1.73,0,0,0-.56-.31L131,54.4a2,2,0,0,1-1-.75,1.37,1.37,0,0,1,0-1.18,1.65,1.65,0,0,1,1-1,3,3,0,0,1,1.79-.05,5.3,5.3,0,0,1,1.73.6c-.11.42-.17.62-.28,1a6.51,6.51,0,0,0-1.6-.56c-.56-.12-.88,0-1,.26a.32.32,0,0,0,.06.33,1.78,1.78,0,0,0,.52.28l.44.17a2.55,2.55,0,0,1,1.16.73,1.25,1.25,0,0,1,.11,1.16,1.68,1.68,0,0,1-1.06,1.14A3.68,3.68,0,0,1,130.74,56.59Z"/><polygon points="135.94 48.41 136.3 49.17 137.02 48.74 136.73 49.53 137.55 49.74 136.79 50.09 137.22 50.82 136.43 50.53 136.22 51.35 135.87 50.59 135.14 51.02 135.43 50.23 134.61 50.02 135.38 49.66 134.94 48.94 135.74 49.23 135.94 48.41"/><path class="cls-4" d="M70.78,30.89a17.72,17.72,0,0,0-19,1.3c-9.77,7,8.09,10.88,8.09,10.88Z"/><path class="cls-4" d="M106.34,76.39h0C108.48,84,103.65,91.84,95.56,94L72.4,100.05c-8.09,2.13-16.39-2.29-18.53-9.87h0C51.73,82.6,56.55,74.73,64.65,72.6L87.8,66.52C95.9,64.39,104.19,68.81,106.34,76.39Z"/><path class="cls-4" d="M111.8,96.39h0a13.84,13.84,0,0,1-9.93,17.15l-23.81,6.25a14.46,14.46,0,0,1-17.57-9.94h0a13.85,13.85,0,0,1,9.93-17.16l23.81-6.24A14.46,14.46,0,0,1,111.8,96.39Z"/><path class="cls-4" d="M112.64,124.26h0c-.82,5.74-6.43,9.75-12.53,8.94l-29.18-3.84c-6.1-.81-10.39-6.12-9.58-11.86h0c.82-5.75,6.42-9.75,12.53-9l29.18,3.85C109.16,113.2,113.45,118.51,112.64,124.26Z"/><rect class="cls-5" x="66.55" y="56.86" width="26.6" height="47.61" rx="11.28" transform="translate(22.99 178.9) rotate(-105.22)"/><rect class="cls-5" x="72.65" y="75.71" width="26.12" height="48.72" rx="11.08" transform="translate(11.65 209.05) rotate(-105.22)"/><rect class="cls-4" x="44.87" y="28.71" width="28.82" height="67.79" rx="12.22" transform="translate(100.06 138.58) rotate(-164.79)"/><path class="cls-4" d="M62.91,58.59S23.19,71.71,33.54,109.71s45.9,32.09,63.87,25.75S62.91,58.59,62.91,58.59Z"/><path class="cls-5" d="M63.64,54.16S25.45,66.86,35.8,104.87s44.59,32.45,61.86,26.3S63.64,54.16,63.64,54.16Z"/><rect class="cls-5" x="40.11" y="28.74" width="29.61" height="71.06" rx="12.56" transform="translate(91.03 140.71) rotate(-164.79)"/><path class="cls-5" d="M70.8,61.51s-.1,5.56,4.74,6.81-8.1,9.1-8.1,9.1L60.5,72.81Z"/><rect class="cls-5" x="77.93" y="94.06" width="21" height="48.72" rx="8.91" transform="translate(-40.86 190.02) rotate(-82.23)"/><path class="cls-4" d="M52,55.84,39,52.31S41.88,30.73,57.67,35Z"/><path class="cls-3" d="M60.63,97h0a5.75,5.75,0,0,1-5.76-5.75V88.19l11.51,2.36v.73A5.74,5.74,0,0,1,60.63,97Z"/><path d="M63.36,89.92a3,3,0,0,0-3.56,2.41,2.94,2.94,0,0,0,0,.51l1.52.42-1.14,1.12a3,3,0,1,0,3.23-4.46Z"/><path class="cls-3" d="M77,97h0a5.74,5.74,0,0,0,5.75-5.75V88.19l-11.5,2.36v.73A5.74,5.74,0,0,0,77,97Z"/><path d="M79.73,89.92a3,3,0,0,0-3.56,2.41,2.94,2.94,0,0,0,0,.51l1.52.42L76.5,94.38a3,3,0,1,0,3.23-4.46Z"/><polygon class="cls-6" points="66.73 90.47 45.77 86.83 46.84 80.66 66.8 87.23 66.73 90.47"/><polygon class="cls-6" points="68.72 91.58 89.67 87.94 88.6 81.78 68.64 88.35 68.72 91.58"/><path class="cls-7" d="M56.18,103.12H80.94a0,0,0,0,1,0,0v4.15a8.9,8.9,0,0,1-8.9,8.9h-7a8.9,8.9,0,0,1-8.9-8.9v-4.15A0,0,0,0,1,56.18,103.12Z"/><g class="cls-8"><path class="cls-9" d="M56.18,103.12H80.94a0,0,0,0,1,0,0v4.15a8.9,8.9,0,0,1-8.9,8.9h-7a8.9,8.9,0,0,1-8.9-8.9v-4.15A0,0,0,0,1,56.18,103.12Z"/><ellipse class="cls-10" cx="71.25" cy="115.81" rx="11.5" ry="9.67"/></g></g></g></svg>