<svg xmlns="http://www.w3.org/2000/svg" height="240" width="240" viewBox="0 0 150.5 126"><defs><style>.cls-1{fill:#574ce4;}.cls-2{fill:#735dff;}.cls-3{fill:#ffdf3f;}.cls-10,.cls-4{fill:none;stroke-miterlimit:10;}.cls-4{stroke:#000;stroke-width:0.16px;}.cls-5{fill:#fff;}.cls-6{fill:#2d2d9f;}.cls-7{fill:#fcbbd7;}.cls-8{fill:#ffc73f;}.cls-9{fill:#09e7e2;}.cls-10{stroke:#09e7e2;stroke-width:0.62px;}.cls-11{fill:#e10722;}.cls-12{fill:#fd3036;}.cls-13{fill:#bb0f24;}</style></defs><g id="레이어_2" data-name="레이어 2"><g id="Layer_1" data-name="Layer 1"><path class="cls-1" d="M137.63,36.42l.63-.1a18.71,18.71,0,0,0-3.09-4,14.9,14.9,0,0,0-21-1.78L64,72.83a14.92,14.92,0,0,0-1.78,21h0a14.91,14.91,0,0,0,21,1.78l50.12-42.29A14.91,14.91,0,0,0,137.63,36.42Z"/><path class="cls-1" d="M141.52,32.75s-6.71-9.24-22.12-5.06c-8.09,9.26-.63,10.51-.63,10.51Z"/><path class="cls-1" d="M95.21,122.79s15.88-6.76,24.36-23.47-20.74,11.17-20.74,11.17Z"/><path class="cls-1" d="M100.13,3.87l3-2.3A25.08,25.08,0,0,0,87.8.83h0a15,15,0,0,0-11.31,9.87L55.64,71.19A15.05,15.05,0,0,0,65,90.33h0A15.06,15.06,0,0,0,84.12,81l20.81-60.48A15.09,15.09,0,0,0,100.13,3.87Z"/><rect class="cls-1" x="29.2" y="48" width="30.77" height="94.08" rx="12.88" transform="translate(-60.37 92.66) rotate(-63.56)"/><path class="cls-1" d="M7.24,65.56S.55,72.12.86,81.16s9.57,8.07,9.57,8.07Z"/><path class="cls-1" d="M70.11,124.26s21.19,8.93,41-13.66C129.84,89.14,73.5,94,73.5,94Z"/><path class="cls-1" d="M53.67,11.6,57.83,6s-10.56,1.25-16.4,5.27l-.15.11A14.66,14.66,0,0,0,34,24.28V89.39c0,8,5.93,14.49,13.25,14.49h0c7.32,0,13.26-6.49,13.26-14.49V24.28A14.73,14.73,0,0,0,53.67,11.6Z"/><rect class="cls-2" x="43.09" y="5.97" width="28.97" height="94.08" rx="12.12"/><rect class="cls-2" x="72.74" y="-0.99" width="30.12" height="94.08" rx="12.6" transform="translate(19.76 -26.06) rotate(18.99)"/><rect class="cls-2" x="90.94" y="16.05" width="29.24" height="94.08" rx="12.24" transform="translate(85.71 -58.28) rotate(49.85)"/><rect class="cls-2" x="31.87" y="42.63" width="30.77" height="94.08" rx="12.88" transform="translate(-54.08 92.07) rotate(-63.56)"/><ellipse class="cls-2" cx="83.51" cy="81.16" rx="40.62" ry="39.37"/><polygon class="cls-1" points="68.4 123.84 72.53 125.03 71.89 122.03 68.4 123.84"/><ellipse class="cls-3" cx="114.9" cy="87.57" rx="10.01" ry="6.29"/><ellipse class="cls-4" cx="116.71" cy="87.57" rx="10.01" ry="6.29"/><ellipse class="cls-3" cx="54.81" cy="87.57" rx="10.01" ry="6.29"/><ellipse class="cls-4" cx="56.8" cy="87.57" rx="10.01" ry="6.29"/><circle class="cls-5" cx="73.33" cy="70.08" r="6.52"/><path d="M76.29,66.92a3.27,3.27,0,0,0-3.38,3.14,3.32,3.32,0,0,0,0,.55l1.69.2-1,1.37a3.26,3.26,0,1,0,2.69-5.26Z"/><circle class="cls-5" cx="93.55" cy="70.08" r="6.52"/><path d="M96.51,66.92a3.27,3.27,0,0,0-3.38,3.14,4.93,4.93,0,0,0,0,.55l1.69.2-1,1.37a3.26,3.26,0,1,0,2.69-5.26Z"/><path class="cls-6" d="M77.26,91.5a21.77,21.77,0,0,0,1.15,4.86,7.65,7.65,0,0,0,3.12,3.86,5,5,0,0,0,4.91.16A6.55,6.55,0,0,0,89,96.6a23.09,23.09,0,0,0,.86-6.72"/><ellipse class="cls-7" cx="83.35" cy="96.62" rx="3.33" ry="5.03" transform="translate(-28.52 158) rotate(-77.97)"/><path class="cls-6" d="M75,89.24a9.79,9.79,0,0,0,7.44,2.62,15,15,0,0,0,4.34-1,8.17,8.17,0,0,0,3.66-2.09c.39-.49-.3-1.18-.69-.69a7.73,7.73,0,0,1-3.47,1.93,13.72,13.72,0,0,1-3.84.82,8.81,8.81,0,0,1-6.75-2.33c-.45-.44-1.14.25-.69.69Z"/><path class="cls-6" d="M76.79,90.78c.55,3.61,1.43,8.08,5.2,9.69a5.1,5.1,0,0,0,5-.42,7.89,7.89,0,0,0,2.57-4.39,25.16,25.16,0,0,0,.77-6.7.49.49,0,0,0-1,0,24.3,24.3,0,0,1-.79,6.64c-.56,1.9-1.57,4-3.74,4.32a5.37,5.37,0,0,1-5.15-2.77,16.82,16.82,0,0,1-2-6.63c-.09-.62-1-.36-.94.26Z"/><polygon class="cls-1" points="131.63 32.15 133.34 36.96 137.96 34.77 135.76 39.38 140.58 41.09 135.76 42.8 137.96 47.42 133.34 45.23 131.63 50.04 129.92 45.23 125.31 47.42 127.5 42.8 122.69 41.09 127.5 39.38 125.31 34.77 129.92 36.96 131.63 32.15"/><polygon class="cls-1" points="98.3 6.58 100.01 11.39 104.63 9.2 102.43 13.81 107.25 15.52 102.43 17.23 104.63 21.84 100.01 19.65 98.3 24.46 96.59 19.65 91.98 21.84 94.17 17.23 89.36 15.52 94.17 13.81 91.98 9.2 96.59 11.39 98.3 6.58"/><polygon class="cls-1" points="57.79 13.96 59.5 18.77 64.11 16.57 61.92 21.19 66.73 22.9 61.92 24.61 64.11 29.22 59.5 27.03 57.79 31.84 56.08 27.03 51.47 29.22 53.66 24.61 48.85 22.9 53.66 21.19 51.47 16.57 56.08 18.77 57.79 13.96"/><polygon class="cls-1" points="20.82 65.59 22.53 70.41 27.14 68.21 24.95 72.83 29.77 74.54 24.95 76.25 27.14 80.86 22.53 78.67 20.82 83.48 19.11 78.67 14.5 80.86 16.69 76.25 11.88 74.54 16.69 72.83 14.5 68.21 19.11 70.41 20.82 65.59"/><polygon class="cls-8" points="145.5 13.87 148 18.19 150.5 22.52 145.5 22.52 140.51 22.52 143.01 18.19 145.5 13.87"/><polygon class="cls-8" points="140.13 6.69 137.57 9.45 135.01 12.21 133.9 8.62 132.78 5.02 136.46 5.85 140.13 6.69"/><polygon class="cls-8" points="120.12 16.16 123.57 17.93 127.02 19.69 123.76 21.8 120.51 23.9 120.31 20.03 120.12 16.16"/><polygon class="cls-9" points="122.28 16.16 125.73 17.93 129.18 19.69 125.93 21.8 122.67 23.9 122.48 20.03 122.28 16.16"/><polygon class="cls-10" points="149.82 21.55 145.45 21.04 141.09 20.52 143.72 17 146.34 13.48 148.08 17.51 149.82 21.55"/><ellipse class="cls-11" cx="32.3" cy="27.7" rx="11.6" ry="4.71" transform="translate(-10.07 23.74) rotate(-35.27)"/><path class="cls-12" d="M69.27,9.67C66.49,2.39,55.54-.19,44.81,3.91h0C34.08,8,27.63,17.23,30.41,24.51l3.06,8L72.33,17.68Zm-24,14.5-1-2.59c-.9-2.35,1.18-5.32,4.65-6.65s7-.49,7.9,1.86l1,2.59Z"/><rect class="cls-11" x="43.91" y="19.67" width="14.8" height="2.46" transform="translate(-4.09 19.97) rotate(-21.2)"/><rect class="cls-13" x="56.15" y="17.36" width="2.24" height="2.46" transform="translate(-2.85 21.97) rotate(-21.2)"/><path class="cls-6" d="M67.06,60.18a6,6,0,0,1,5.25-1.42c.57.11.82-.77.24-.88a6.94,6.94,0,0,0-6.14,1.66c-.42.41.23,1.05.65.64Z"/><path class="cls-6" d="M99.48,59.35A6.82,6.82,0,0,0,93,58.25c-.58.22-.33,1.16.26.94a5.81,5.81,0,0,1,5.53.85.5.5,0,0,0,.69,0,.49.49,0,0,0,0-.69Z"/></g></g></svg>